<?xml version="1.0" encoding="UTF-8" standalone="no"?>
<!-- Created with Keyshape -->
<svg xmlns="http://www.w3.org/2000/svg" id="chats" shape-rendering="geometricPrecision" text-rendering="geometricPrecision" viewBox="0 0 550 500" style="white-space: pre;">
    <defs>
        <mask id="Mask-1" style="mask-type: alpha;">
            <g id="Path-20" opacity="0" transform="translate(0,-48) translate(-90,-8)">
                <g id="Path-5-3" opacity="1">
                    <path id="Path-1-4" fill="#006699" d="M7.826,16C7.826,16,172.174,16,172.174,16C176.496,16,180,12.418,180,8C180,3.582,176.496,0,172.174,0C172.174,0,7.826,0,7.826,0C3.504,0,0,3.582,0,8C0,12.418,3.504,16,7.826,16Z" fill-opacity="1" fill-rule="nonzero"/>
                </g>
            </g>
        </mask>
        <mask id="Mask-2" style="mask-type: alpha;">
            <g id="Path-21" opacity="0" transform="translate(-22,0) translate(-68,-8)">
                <g id="Path-6-3" opacity="1">
                    <path id="Path-1-6" fill="#006699" d="M128,0C128,0,8,0,8,0C3.582,0,0,3.582,0,8C0,12.418,3.582,16,8,16C8,16,128,16,128,16C132.418,16,136,12.418,136,8C136,3.582,132.418,0,128,0Z" fill-opacity="1" fill-rule="nonzero"/>
                </g>
            </g>
        </mask>
        <mask id="Mask-3" style="mask-type: alpha;">
            <g id="Path-22" opacity="0" transform="translate(-26,48) translate(-64,-8)">
                <g id="Path-7-3" opacity="1">
                    <path id="Path-1-8" fill="#006699" d="M120,0C120,0,8,0,8,0C3.582,0,0,3.582,0,8C0,12.418,3.582,16,8,16C8,16,120,16,120,16C124.418,16,128,12.418,128,8C128,3.582,124.418,0,120,0Z" fill-opacity="1" fill-rule="nonzero"/>
                </g>
            </g>
        </mask>
        <mask id="Mask-4" style="mask-type: alpha;">
            <g id="Path-23" opacity="0" transform="translate(0,-48.5) translate(-100,-8)">
                <g id="Path-2-3" opacity="1">
                    <path id="Path-1-12" fill="#006699" d="M192,0C192,0,8,0,8,0C3.582,0,0,3.582,0,8C0,12.418,3.582,16,8,16C8,16,192,16,192,16C196.418,16,200,12.418,200,8C200,3.582,196.418,0,192,0Z" fill-opacity="1" fill-rule="nonzero"/>
                </g>
            </g>
        </mask>
        <mask id="Mask-5" style="mask-type: alpha;">
            <g id="Path-24" opacity="0" transform="translate(0,0) translate(-100,-8)">
                <g id="Path-3-3" opacity="1">
                    <path id="Path-1-14" fill="#006699" d="M192,0C192,0,8,0,8,0C3.582,0,0,3.582,0,8C0,12.418,3.582,16,8,16C8,16,192,16,192,16C196.418,16,200,12.418,200,8C200,3.582,196.418,0,192,0Z" fill-opacity="1" fill-rule="nonzero"/>
                </g>
            </g>
        </mask>
        <mask id="Mask-6" style="mask-type: alpha;">
            <g id="Path-25" opacity="0" transform="translate(0,48.5) translate(-100,-8)">
                <g id="Path-4-3" opacity="1">
                    <path id="Path-1-16" fill="#006699" d="M192,0C192,0,8,0,8,0C3.582,0,0,3.582,0,8C0,12.418,3.582,16,8,16C8,16,192,16,192,16C196.418,16,200,12.418,200,8C200,3.582,196.418,0,192,0Z" fill-opacity="1" fill-rule="nonzero"/>
                </g>
            </g>
        </mask>
    </defs>
    <g id="chats-2" transform="translate(274.5,250)">
        <g id="chat-1" transform="translate(-154.847,106.991) scale(0,0) translate(62.847,-155.191)">
            <g id="Shape-Layer-1" transform="translate(92.5,48.201)">
                <g id="Shape-1" opacity="1">
                    <path id="Path-1" fill="#ffffff" d="M-170.339,-195.611C-170.339,-195.611,-196.268,-185.697,-196.268,-185.697C-196.268,-185.697,-226.01,-162.056,-226.01,-162.056C-226.01,-162.056,-230.586,-61.391,-230.586,-61.391C-230.586,-61.391,-227.536,-11.821,-227.536,-11.821C-227.536,-11.821,-204.657,18.684,-204.657,18.684C-204.657,18.684,-154.324,30.123,-154.324,30.123C-154.324,30.123,-146.698,91.895,-146.698,91.895C-146.698,91.895,-76.537,27.073,-76.537,27.073C-76.537,27.073,-23.917,27.836,-23.917,27.836C-23.917,27.836,8.113,20.972,8.113,20.972C8.113,20.972,33.279,4.194,33.279,4.194C33.279,4.194,47.769,-21.735,47.769,-21.735C47.769,-21.735,45.481,-104.097,45.481,-104.097C45.481,-104.097,45.481,-149.854,45.481,-149.854C45.481,-149.854,39.38,-165.106,33.279,-171.207C27.178,-177.308,-3.326,-194.849,-3.326,-194.849C-3.326,-194.849,-170.339,-195.611,-170.339,-195.611Z" fill-opacity="1" fill-rule="nonzero" stroke="#cdf1e3" stroke-opacity="1" stroke-width="3" stroke-miterlimit="4" stroke-linecap="butt" stroke-linejoin="miter"/>
                </g>
            </g>
        </g>
    </g>
    <g id="chats-3" transform="translate(274.5,250)">
        <g id="chat-1-2" transform="translate(-154.847,106.991) scale(0,0) translate(62.847,-155.191)">
            <g id="Path-19" transform="translate(0,0) translate(-148,-155.799)">
                <g id="Path-19-2" opacity="1">
                    <path id="Path-1-2" fill="#006699" d="M72,0.152C72,0.152,169.155,0.152,169.155,0.152C169.155,0.152,175.718,0.152,175.718,0.152C207.159,0.152,251.266,-3.6,274.317,26.179C296.901,55.354,278.703,45.966,296,72.152C296,72.152,296,168.152,296,168.152C295.998,169.901,295.934,171.635,295.79,173.612C293.104,210.67,261.997,240.107,224,240.152C224,240.152,162.762,240.152,162.762,240.152C162.762,240.152,93.872,309.256,93.872,309.256C91.583,311.541,88.141,312.228,85.153,310.99C82.165,309.752,80.216,306.834,80.216,303.6C80.216,303.6,80,240.152,80,240.152C80,240.152,72,240.152,72,240.152C32.254,240.105,0.047,207.898,0,168.152C0,168.152,0,72.152,0,72.152C0.047,32.406,32.254,0.199,72,0.152C72,0.152,32.254,0.199,72,0.152ZM206.568,0.152C206.568,0.152,214.299,0.152,214.299,0.152C214.299,0.152,224,0.152,224,0.152C263.746,0.199,295.953,32.406,296,72.152C296,72.152,290.752,84.432,274.317,35.342C238.171,8.36,236.411,11.686,206.568,0.152ZM16,168.152C16.035,199.066,41.086,224.117,72,224.152C72,224.152,88,224.152,88,224.152C92.418,224.152,96,227.734,96,232.152C96,232.152,96.216,284.287,96.216,284.287C96.216,284.287,153.793,226.496,153.793,226.496C155.293,224.996,157.329,224.152,159.45,224.152C159.45,224.152,224,224.152,224,224.152C254.914,224.117,279.965,199.066,280,168.152C280,168.152,280,72.152,280,72.152C279.965,41.238,254.914,16.187,224,16.152C224,16.152,72,16.152,72,16.152C41.086,16.187,16.035,41.238,16,72.152C16,72.152,16,168.152,16,168.152Z" fill-opacity="1" fill-rule="nonzero"/>
                </g>
            </g>
        </g>
    </g>
    <g id="chats-4" transform="translate(274.5,250)">
        <g id="chat-1-3" transform="translate(-154.847,106.991) scale(0,0) translate(62.847,-155.191)">
            <g id="Group-4" transform="translate(-18,-35.799)">
                <g mask="url(#Mask-1)">
                    <g id="Path-5" opacity="0" transform="translate(-190,-48) translate(0,0) translate(-90,-8)">
                        <g id="Path-5-2" opacity="1">
                            <path id="Path-1-3" fill="#006699" d="M7.826,16C7.826,16,172.174,16,172.174,16C176.496,16,180,12.418,180,8C180,3.582,176.496,0,172.174,0C172.174,0,7.826,0,7.826,0C3.504,0,0,3.582,0,8C0,12.418,3.504,16,7.826,16Z" fill-opacity="1" fill-rule="nonzero"/>
                        </g>
                    </g>
                </g>
            </g>
        </g>
    </g>
    <g id="chats-5" transform="translate(274.5,250)">
        <g id="chat-1-4" transform="translate(-154.847,106.991) scale(0,0) translate(62.847,-155.191)">
            <g id="Group-4-2" transform="translate(-18,-35.799)">
                <g mask="url(#Mask-2)">
                    <g id="Path-6" opacity="0" transform="translate(-172,0) translate(0,0) translate(-68,-8)">
                        <g id="Path-6-2" opacity="1">
                            <path id="Path-1-5" fill="#006699" d="M128,0C128,0,8,0,8,0C3.582,0,0,3.582,0,8C0,12.418,3.582,16,8,16C8,16,128,16,128,16C132.418,16,136,12.418,136,8C136,3.582,132.418,0,128,0Z" fill-opacity="1" fill-rule="nonzero"/>
                        </g>
                    </g>
                </g>
            </g>
        </g>
    </g>
    <g id="chats-6" transform="translate(274.5,250)">
        <g id="chat-1-5" transform="translate(-154.847,106.991) scale(0,0) translate(62.847,-155.191)">
            <g id="Group-4-3" transform="translate(-18,-35.799)">
                <g mask="url(#Mask-3)">
                    <g id="Path-7" opacity="0" transform="translate(-166,48) translate(0,0) translate(-64,-8)">
                        <g id="Path-7-2" opacity="1">
                            <path id="Path-1-7" fill="#006699" d="M120,0C120,0,8,0,8,0C3.582,0,0,3.582,0,8C0,12.418,3.582,16,8,16C8,16,120,16,120,16C124.418,16,128,12.418,128,8C128,3.582,124.418,0,120,0Z" fill-opacity="1" fill-rule="nonzero"/>
                        </g>
                    </g>
                </g>
            </g>
        </g>
    </g>
    <g id="chats-7" transform="translate(274.5,250)">
        <g id="chat-1-6" transform="translate(-154.847,106.991) scale(0,0) translate(62.847,-155.191)">
            <g id="Group-4-4" transform="translate(-18,-35.799)"/>
        </g>
    </g>
    <g id="chats-8" transform="translate(274.5,250)">
        <g id="chat-1-7" transform="translate(-154.847,106.991) scale(0,0) translate(62.847,-155.191)"/>
    </g>
    <g id="chats-9" transform="translate(274.5,250)">
        <g id="chat-2" transform="translate(155.063,203.391) scale(0,0) translate(-63.063,-163.467)">
            <g id="Shape-Layer-2" opacity="0" transform="translate(-93.788,41.676) scale(-1,1)">
                <g id="Shape-1-2" opacity="1">
                    <path id="Path-1-9" fill="#ffffff" d="M-170.339,-195.611C-170.339,-195.611,-196.268,-185.697,-196.268,-185.697C-196.268,-185.697,-226.01,-162.056,-226.01,-162.056C-226.01,-162.056,-230.586,-61.391,-230.586,-61.391C-230.586,-61.391,-227.536,-11.821,-227.536,-11.821C-227.536,-11.821,-204.657,18.684,-204.657,18.684C-204.657,18.684,-154.324,30.123,-154.324,30.123C-154.324,30.123,-152.036,113.249,-152.036,113.249C-152.036,113.249,-67.386,26.31,-67.386,26.31C-67.386,26.31,-23.917,27.835,-23.917,27.835C-23.917,27.835,8.113,20.972,8.113,20.972C8.113,20.972,33.279,4.194,33.279,4.194C33.279,4.194,47.769,-21.735,47.769,-21.735C47.769,-21.735,45.481,-104.097,45.481,-104.097C45.481,-104.097,45.481,-149.854,45.481,-149.854C45.481,-149.854,39.38,-165.106,33.279,-171.207C27.178,-177.308,-3.326,-194.849,-3.326,-194.849C-3.326,-194.849,-170.339,-195.611,-170.339,-195.611Z" fill-opacity="1" fill-rule="nonzero" stroke="#cdf1e3" stroke-opacity="1" stroke-width="3" stroke-miterlimit="4" stroke-linecap="butt" stroke-linejoin="miter"/>
                </g>
            </g>
        </g>
    </g>
    <g id="chats-10" transform="translate(274.5,250)">
        <g id="chat-2-2" transform="translate(155.063,203.391) scale(0,0) translate(-63.063,-163.467)">
            <g id="Path-18" opacity="0" transform="translate(0,0) translate(-148,-164.076)">
                <g id="Path-18-2" opacity="1">
                    <path id="Path-1-10" fill="#006699" d="M224,0.152C224,0.152,126.845,0.152,126.845,0.152C126.845,0.152,120.282,0.152,120.282,0.152C88.841,0.152,44.734,-3.6,21.683,26.179C-0.901,55.354,17.297,45.966,0,72.152C0,72.152,0,168.152,0,168.152C0.002,169.901,0.066,171.635,0.21,173.612C2.896,210.67,34.003,240.107,72,240.152C72,240.152,116.688,240.152,116.688,240.152C116.688,240.152,202.344,325.808,202.344,325.808C204.633,328.093,208.075,328.781,211.063,327.543C214.051,326.305,216,323.386,216,320.152C216,320.152,216,240.152,216,240.152C216,240.152,224,240.152,224,240.152C263.746,240.105,295.953,207.898,296,168.152C296,168.152,296,72.152,296,72.152C295.953,32.406,263.746,0.199,224,0.152C224,0.152,263.746,0.199,224,0.152ZM89.432,0.152C89.432,0.152,81.702,0.152,81.702,0.152C81.702,0.152,72,0.152,72,0.152C32.254,0.199,0.047,32.406,0,72.152C0,72.152,5.248,84.432,21.683,35.342C57.829,8.36,59.589,11.686,89.432,0.152ZM280,168.152C279.965,199.066,254.914,224.117,224,224.152C224,224.152,208,224.152,208,224.152C203.582,224.152,200,227.734,200,232.152C200,232.152,200,300.84,200,300.84C200,300.84,125.656,226.496,125.656,226.496C124.156,224.996,122.121,224.152,120,224.152C120,224.152,72,224.152,72,224.152C41.086,224.117,16.035,199.066,16,168.152C16,168.152,16,72.152,16,72.152C16.035,41.238,41.086,16.187,72,16.152C72,16.152,224,16.152,224,16.152C254.914,16.187,279.965,41.238,280,72.152C280,72.152,280,168.152,280,168.152Z" fill-opacity="1" fill-rule="nonzero"/>
                </g>
            </g>
        </g>
    </g>
    <g id="chats-11" transform="translate(274.5,250)">
        <g id="chat-2-3" transform="translate(155.063,203.391) scale(0,0) translate(-63.063,-163.467)">
            <g id="Group-5" transform="translate(0,-44.424)">
                <g mask="url(#Mask-4)">
                    <g id="Path-2" opacity="0" transform="translate(-210,-48.5) translate(0,0) translate(-100,-8)">
                        <g id="Path-2-2" opacity="1">
                            <path id="Path-1-11" fill="#006699" d="M192,0C192,0,8,0,8,0C3.582,0,0,3.582,0,8C0,12.418,3.582,16,8,16C8,16,192,16,192,16C196.418,16,200,12.418,200,8C200,3.582,196.418,0,192,0Z" fill-opacity="1" fill-rule="nonzero"/>
                        </g>
                    </g>
                </g>
            </g>
        </g>
    </g>
    <g id="chats-12" transform="translate(274.5,250)">
        <g id="chat-2-4" transform="translate(155.063,203.391) scale(0,0) translate(-63.063,-163.467)">
            <g id="Group-5-2" transform="translate(0,-44.424)">
                <g mask="url(#Mask-5)">
                    <g id="Path-3" opacity="0" transform="translate(-210,0) translate(0,0) translate(-100,-8)">
                        <g id="Path-3-2" opacity="1">
                            <path id="Path-1-13" fill="#006699" d="M192,0C192,0,8,0,8,0C3.582,0,0,3.582,0,8C0,12.418,3.582,16,8,16C8,16,192,16,192,16C196.418,16,200,12.418,200,8C200,3.582,196.418,0,192,0Z" fill-opacity="1" fill-rule="nonzero"/>
                        </g>
                    </g>
                </g>
            </g>
        </g>
    </g>
    <g id="chats-13" transform="translate(274.5,250)">
        <g id="chat-2-5" transform="translate(155.063,203.391) scale(0,0) translate(-63.063,-163.467)">
            <g id="Group-5-3" transform="translate(0,-44.424)">
                <g mask="url(#Mask-6)">
                    <g id="Path-4" opacity="0" transform="translate(-210,48.5) translate(0,0) translate(-100,-8)">
                        <g id="Path-4-2" opacity="1">
                            <path id="Path-1-15" fill="#006699" d="M192,0C192,0,8,0,8,0C3.582,0,0,3.582,0,8C0,12.418,3.582,16,8,16C8,16,192,16,192,16C196.418,16,200,12.418,200,8C200,3.582,196.418,0,192,0Z" fill-opacity="1" fill-rule="nonzero"/>
                        </g>
                    </g>
                </g>
            </g>
        </g>
    </g>
    <g id="chats-14" transform="translate(274.5,250)">
        <g id="chat-2-6" transform="translate(155.063,203.391) scale(0,0) translate(-63.063,-163.467)">
            <g id="Group-5-4" opacity="0" transform="translate(0,-44.424)"/>
        </g>
    </g>
    <g id="chats-15" transform="translate(274.5,250)">
        <g id="chat-2-7" opacity="0" transform="translate(155.063,203.391) scale(0,0) translate(-63.063,-163.467)">
            <rect id="Rectangle-Path-1" fill="none" width="296" height="328.151" rx="0" opacity="1" transform="translate(-148,-164.076)"/>
        </g>
    </g>
    <g id="chats-16" transform="translate(274.5,250)"/>
    <script><![CDATA[/*
 KeyshapeJS v1.1.1 (c) 2018-2021 Pixofield Ltd | pixofield.com/keyshapejs/mit-license */
window.KeyshapeJS=function(){function t(a){return"undefined"!==typeof a}function x(a,b){return a&&0==a.indexOf(b)}function R(a){var b={},c;for(c in a)b[c]=a[c];return b}function H(a){if(!isFinite(a))throw Error("Non-finite value");}function S(a){if(14>=a)return 16;var b=T[a];b||(b=t(da[a])?0|(a.toLowerCase().indexOf("color")==a.length-5?48:0):1);return b}function K(a){return 0<=a?Math.pow(a,1/3):-Math.pow(-a,1/3)}function ea(a,b,c,d){if(0==a)return 0==b?b=-d/c:(a=Math.sqrt(c*c-4*b*d),d=(-c+a)/(2*
b),0<=d&&1>=d?b=d:(d=(-c-a)/(2*b),b=0<=d&&1>=d?d:0)),b;var e=c/a-b*b/(a*a)/3;c=b*b*b/(a*a*a)/13.5-b*c/(a*a)/3+d/a;var n=c*c/4+e*e*e/27;b=-b/(3*a);if(0>=n){if(0==e&&0==c)return-K(d/a);a=Math.sqrt(c*c/4-n);d=Math.acos(-c/2/a);c=Math.cos(d/3);d=Math.sqrt(3)*Math.sin(d/3);a=K(a);e=2*a*c+b;if(0<=e&&1>=e)return e;e=-a*(c+d)+b;if(0<=e&&1>=e)return e;e=a*(d-c)+b;if(0<=e&&1>=e)return e}else{a=K(-c/2+Math.sqrt(n));c=K(-c/2-Math.sqrt(n));d=a+c+b;if(0<=d&&1>=d)return d;d=-(a+c)/2+b;if(0<=d&&1>=d)return d}return 0}
function fa(a,b){if(48==a&&"number"===typeof b)return"rgba("+(b>>>24)+","+(b>>>16&255)+","+(b>>>8&255)+","+(b&255)/255+")";if(64==a)return b=b.map(function(a){return a+"px"}),b.join(",");if(96==a){a="";for(var c=b.length,d=0;d<c;d+=2)a+=b[d],a+=b[d+1].join(",");return a}if(80==a){if(0==b[0])return"none";a="";c=b.length;for(d=0;d<c;)a+=U[b[d]],1==b[d]?a+="("+b[d+1]+") ":5==b[d]?(a+="("+b[d+1]+"px "+b[d+2]+"px "+b[d+3]+"px rgba("+(b[d+4]>>>24)+","+(b[d+4]>>16&255)+","+(b[d+4]>>8&255)+","+(b[d+4]&255)/
255+")) ",d+=3):a=2==b[d]?a+("("+b[d+1]+"px) "):7==b[d]?a+("("+b[d+1]+"deg) "):a+("("+(0>b[d+1]?0:b[d+1])+") "),d+=2;return a}return 32==a?b+"px":b}function y(a){return 0>=a?0:255<=a?255:a}function ha(a,b,c,d){if(16==a||32==a)return(c-b)*d+b;if(0==a)return.5>d?b:c;if(48==a){if("number"===typeof b&&"number"===typeof c){var e=1-d;return(y(e*(b>>>24)+d*(c>>>24))<<24|y(e*(b>>>16&255)+d*(c>>>16&255))<<16|y(e*(b>>>8&255)+d*(c>>>8&255))<<8|y(e*(b&255)+d*(c&255)))>>>0}return.5>d?b:c}if(64==a){0==b.length&&
(b=[0]);0==c.length&&(c=[0]);var n=b.length;b.length!=c.length&&(n=b.length*c.length);var q=[];for(a=0;a<n;++a){var h=b[a%b.length];var g=(c[a%c.length]-h)*d+h;0>g&&(g=0);q.push(g)}return q}if(96==a){if(b.length!=c.length)return.5>d?b:c;n=b.length;q=[];for(a=0;a<n;a+=2){if(b[a]!==c[a])return.5>d?b:c;q[a]=b[a];q[a+1]=[];for(h=0;h<b[a+1].length;++h)q[a+1].push((c[a+1][h]-b[a+1][h])*d+b[a+1][h])}return q}if(80==a){n=b.length;if(n!=c.length)return.5>d?b:c;q=[];for(a=0;a<n;){if(b[a]!=c[a]||1==b[a])return.5>
d?b:c;q[a]=b[a];q[a+1]=(c[a+1]-b[a+1])*d+b[a+1];if(5==b[a]){q[a+2]=(c[a+2]-b[a+2])*d+b[a+2];q[a+3]=(c[a+3]-b[a+3])*d+b[a+3];e=1-d;var f=b[a+4],l=c[a+4];g=e*(f>>>24)+d*(l>>>24);var m=e*(f>>16&255)+d*(l>>16&255);h=e*(f>>8&255)+d*(l>>8&255);e=e*(f&255)+d*(l&255);q[a+4]=(y(m)<<16|y(h)<<8|y(e))+16777216*(y(g)|0);a+=3}a+=2}return q}return 0}function V(a,b){a:{var c=a+b[2];var d=b[4].length;for(var e=0;e<d;++e)if(c<b[4][e]){c=e;break a}c=d-1}d=b[2];e=b[4][c-1]-d;a=(a-e)/(b[4][c]-d-e);if(b[6]&&b[6].length>
c-1)if(d=b[6][c-1],1==d[0])if(0>=a)a=0;else if(1<=a)a=1;else{e=d[1];var n=d[3];a=ea(3*e-3*n+1,-6*e+3*n,3*e,-a);a=3*a*(1-a)*(1-a)*d[2]+3*a*a*(1-a)*d[4]+a*a*a}else 2==d[0]?(d=d[1],a=Math.ceil(a*d)/d):3==d[0]&&(d=d[1],a=Math.floor(a*d)/d);return ha(b[1]&240,b[5][c-1],b[5][c],a)}function L(){u||(v=(new Date).getTime()+W)}function O(a){if(a||!E){for(var b=!1,c=0;c<w.length;++c)w[c].J(a)&&(b=!0);if(a)for(;0<I.length;)if(a=I.shift(),c=a[0],1==a[1])c.onfinish&&(c.onfinish(),b=!0),c.I();else if(2==a[1]&&c.onloop)c.onloop();
return b}}function X(){L();O(!0)&&!u?(E=!0,M(X)):E=!1}function N(){E||(E=!0,M(X))}function Y(a,b){var c=[];a.split(b).forEach(function(a){c.push(parseFloat(a))});return c}function A(a){-1==a.indexOf(",")&&(a=a.replace(" ",","));return Y(a,",")}function Z(a){a._ks||(a._ks={});if(!a._ks.transform){for(var b=a._ks.transform=[],c=0;14>=c;++c)b[c]=0;b[10]=1;b[11]=1;if(a=a.getAttribute("transform")){a=a.trim().split(") ");for(c=a.length-2;0<=c;--c)if(x(a[c],"translate(")){for(var d=0;d<c;d++)a.shift();
break}c=a.shift();x(c,"translate(")&&(c=A(c.substring(10)),b[1]=c[0],b[2]=t(c[1])?c[1]:0,c=a.shift());x(c,"rotate(")&&(c=A(c.substring(7)),b[6]=c[0],c=a.shift());x(c,"skewX(")&&(c=A(c.substring(6)),b[7]=c[0],c=a.shift());x(c,"skewY(")&&(c=A(c.substring(6)),b[8]=c[0],c=a.shift());x(c,"scale(")&&(c=A(c.substring(6)),b[10]=c[0],b[11]=t(c[1])?c[1]:c[0],c=a.shift());x(c,"translate(")&&(c=A(c.substring(10)),b[13]=c[0],b[14]=t(c[1])?c[1]:0)}}}function aa(a){this.h=a;this.A=[];this.C=[];this.v=0;this.s=this.a=
this.c=null;this.i=this.f=this.g=0;this.b=1;this.j=this.F=this.o=!1}function J(a,b,c){b=a[b];void 0===b&&(b=a[c]);return b}function ia(a){return Array.isArray(a)?a:x(a,"cubic-bezier(")?(a=a.substring(13,a.length-1).split(","),[1,parseFloat(a[0]),parseFloat(a[1]),parseFloat(a[2]),parseFloat(a[3])]):x(a,"steps(")?(a=a.substring(6,a.length-1).split(","),[a[1]&&"start"==a[1].trim()?2:3,parseFloat(a[0])]):[0]}function ja(a){a=a.trim();return x(a,"#")?(parseInt(a.substring(1),16)<<8)+255:x(a,"rgba(")?(a=
a.substring(5,a.length-1),a=a.split(","),(parseInt(a[0],10)<<24)+(parseInt(a[1],10)<<16)+(parseInt(a[2],10)<<8)+255*parseFloat(a[3])<<0):a}function ba(a){!1===a.j&&(w.push(a),a.j=!0,!1!==a.h.autoplay&&a.play());return this}function P(a){if(!0===a.j){a._cancel();var b=w.indexOf(a);-1<b&&w.splice(b,1);b=I.indexOf(a);-1<b&&I.splice(b,1);a.j=!1}return this}var Q=Error("Not in timeline list"),ca="mpath posX posY    rotate skewX skewY  scaleX scaleY  anchorX anchorY".split(" "),ka=" translate translate    rotate skewX skewY  scale scale  translate translate".split(" "),
U="none url blur brightness contrast drop-shadow grayscale hue-rotate invert opacity saturate sepia".split(" "),M=window.requestAnimationFrame||window.webkitRequestAnimationFrame||window.mozRequestAnimationFrame||window.oRequestAnimationFrame||window.msRequestAnimationFrame||null;M||(M=function(a){window.setTimeout(a,16)});var la=navigator.vendor.match(/apple/i),T={d:97,fill:48,fillOpacity:16,filter:80,height:33,opacity:16,offsetDistance:33,stroke:48,strokeDasharray:64,strokeDashoffset:32,strokeOpacity:16,
strokeWidth:32,transform:1,width:33},da=window.getComputedStyle(document.documentElement),E=!1,v=(new Date).getTime(),u,W=0,w=[],I=[];aa.prototype={B:function(a){var b=0;if(null!==this.c){var c=this.l();0<this.b&&null!==c&&c>=this.f?this.i?(this.c=v-this.g/this.b,this.i--,b=2):(b=1,a?this.a=c:this.a=this.s?Math.max(this.s,this.f):this.f):0>this.b&&null!==c&&c<=this.g?this.i&&Infinity!=this.f?(this.c=v-this.f/this.b,this.i--,b=2):(this.i=0,b=1,a?this.a=c:this.a=this.s?Math.min(this.s,this.g):this.g):
null!==c&&0!=this.b&&(a&&null!==this.a&&(this.c=v-this.a/this.b),this.a=null)}this.s=this.l();return b},J:function(a){a&&(this.o&&(this.o=!1,null===this.c&&(0!=this.b&&null!==this.a?(this.c=v-this.a/this.b,this.a=null):this.c=v)),null===this.a&&null!==this.c&&(a=this.B(!1),0!=a&&I.push([this,a])));a=this.l();if(null===a)return!1;for(var b=this.A,c=this.C,d=0;d<b.length;++d){for(var e=b[d],n=!1,q=0;q<c[d].length;++q){var h=c[d][q],g=h[0];if(null!==g){var f=h[2];var l=h[4].length,m=h[4][l-1]-f;f=0==
m?h[5][l-1]:a<=f?h[5][0]:a>=f+h[3]?0==h[3]%m?h[5][l-1]:V(h[3]%m,h):V((a-f)%m,h);0==g?(e._ks.mpath=h[8],e._ks.transform[g]=f,n=!0):14>=g?(e._ks.transform[g]=f,n=!0):(f=fa(h[1]&240,f),h[1]&1?e.setAttribute(g,f):e.style[g]=f)}}if(n){n=e;Z(n);q=n._ks.transform;h="";if(g=n._ks.mpath)l=q[0],0>l&&(l=0),100<l&&(l=100),l=l*g[2]/100,f=g[1].getPointAtLength(l),h="translate("+f.x+","+f.y+") ",g[0]&&(.5>l?(l=f,f=g[1].getPointAtLength(.5)):l=g[1].getPointAtLength(l-.5),h+="rotate("+180*Math.atan2(f.y-l.y,f.x-l.x)/
Math.PI+") ");for(g=1;g<q.length;++g)f=q[g],f!=(10==g||11==g?1:0)&&(h+=" "+ka[g]+"(",h=2>=g?h+(1==g?f+",0":"0,"+f):13<=g?h+(13==g?f+",0":"0,"+f):10<=g?h+(10==g?f+",1":"1,"+f):h+f,h+=")");n.setAttribute("transform",h)}la&&e.setAttribute("opacity",e.getAttribute("opacity"))}return"running"==this.m()},I:function(){!1!==this.h.autoremove&&"finished"==this.m()&&P(this)},D:function(){if(!this.F){this.F=!0;for(var a=this.A,b=this.C,c=0;c<a.length;++c)for(var d=a[c],e=0;e<b[c].length;++e)14>=b[c][e][0]&&
Z(d)}},u:function(a){if("number"==typeof a)return a;if(!t(this.h.markers)||!t(this.h.markers[a]))throw Error("Invalid marker: "+a);return+this.h.markers[a]},play:function(a){t(a)&&null!==a&&(a=this.u(a),H(a),0>this.b&&a<this.g&&(a=this.g),0<this.b&&a>this.f&&(a=this.f),this.w(a,!0));if(!this.j)throw Q;a=this.l();if(0<this.b&&(null===a||a>=this.f))this.a=this.g;else if(0>this.b&&(null===a||a<=this.g)){if(Infinity==this.f)throw Error("Cannot seek to Infinity");this.a=this.f}else 0==this.b&&null===a&&
(this.a=this.g);if(null===this.a)return this;this.c=null;this.o=!0;this.D();N();return this},pause:function(a){if(!this.j)throw Q;t(a)&&(a=this.u(a),H(a));if("paused"!=this.m()){L();var b=this.l();if(null===b)if(0<=this.b)this.a=this.g;else{if(Infinity==this.f)throw Error("Cannot seek to Infinity");this.a=this.f}null!==this.c&&null===this.a&&(this.a=b);this.c=null;this.o=!1;this.B(!1);this.D();N()}t(a)&&this.w(a,!0);return this},range:function(a,b){if(0==arguments.length)return{"in":this.g,out:this.f};
var c=this.u(a),d=this.v;t(b)&&(d=this.u(b));H(c);if(0>c||0>d||c>=d||isNaN(d))throw Error("Invalid range");var e=this.m();this.g=c;this.f=d;"finished"==e&&"running"==this.m()&&this.play();return this},loop:function(a){if(!t(a))return{count:this.i};this.i=!0===a?Infinity:Math.floor(a);if(0>this.i||isNaN(this.i))this.i=0;return this},l:function(){return null!==this.a?this.a:null===this.c?null:(v-this.c)*this.b},w:function(a,b){b&&L();null!==a&&(this.D(),null!==this.a||null===this.c||0==this.b?(this.a=
a,O(!1)):this.c=v-a/this.b,this.j||(this.c=null),this.s=null,this.B(!0),N())},G:function(){return this.l()},time:function(a){if(t(a)){if(!this.j)throw Q;a=this.u(a);H(a);this.w(a,!0);return this}return this.G()},m:function(){var a=this.l();return this.o?"running":null===a?"idle":null===this.c?"paused":0<this.b&&a>=this.f||0>this.b&&a<=this.g?"finished":"running"},state:function(){return this.m()},duration:function(){return this.v},H:function(a){H(a);L();var b=this.l();this.b=a;null!==b&&this.w(b,
!1)},rate:function(a){return t(a)?(this.H(a),this):this.b},markers:function(a){return t(a)?(this.h.markers=R(a),this):t(this.h.markers)?this.h.markers:{}},marker:function(a){return t(this.h.markers)?this.h.markers[a]:void 0},_cancel:function(){if(!this.j||"idle"==this.m())return this;this.c=this.a=null;this.o=!1;return this}};return{version:"1.1.1",animate:function(){var a={};1==arguments.length%2&&(a=R(arguments[arguments.length-1]));a=new aa(a);for(var b=arguments,c=0,d=0;d<b.length-1;d+=2){var e=
b[d];var n=e instanceof Element?e:document.getElementById(e.substring(1));if(!n)throw Error("Invalid target: "+e);e=n;n=b[d+1];e._ks||(e._ks={});for(var q=[],h=0;h<n.length;++h){var g=n[h],f=J(g,"p","property");if("string"!=typeof f||-1!=f.indexOf("-")||""===f||!(0<T[f]||0<=ca.indexOf(f)))throw Error("Invalid property: "+f);var l=ca.indexOf(f);""!==f&&0<=l&&(f=l);l=S(f);var m=J(g,"t","times");if(!m||2>m.length)throw Error("Not enough times");m=m.slice();if(!isFinite(m[0])||0>m[0])throw Error("Invalid time: "+
m[0]);for(var B=1;B<m.length;++B)if(!isFinite(m[B])||0>m[B]||m[B]<m[B-1])throw Error("Invalid time: "+m[B]);B=m[0];var v=m[m.length-1]-B,y=g.iterations||0;1>y&&(y=1);v*=y;c<v+B&&(c=v+B);var u=J(g,"v","values");if(!u||u.length!=m.length)throw Error("Values do not match times");u=u.slice();for(var C=f,k=u,w=S(C)&240,p=0;p<k.length;++p)if(96==w){for(var G=k[p].substring(6,k[p].length-2).match(/[A-DF-Za-df-z][-+0-9eE., ]*/ig),A=[],r=0;r<G.length;++r){A.push(G[r][0]);for(var z=1<G[r].trim().length?G[r].substring(1).split(","):
[],F=0;F<z.length;++F)z[F]=parseFloat(z[F]);A.push(z)}k[p]=A}else if(48==w)x(k[p],"#")?(G=9==k[p].length,k[p]=parseInt(k[p].substring(1),16),G||(k[p]=256*k[p]|255)):x(k[p],"url(")||"none"==k[p]||(console.warn("unsupported color: "+k[p]),k[p]=0);else if(80==w){G=k;A=p;r=k[p];if("none"==r)r=[0];else{z=[];for(var D=r.indexOf("(");0<D;)if(F=U.indexOf(r.substring(0,D)),0<=F){z.push(F);var E=r.indexOf(") ");0>E&&(E=r.length-1);D=r.substring(D+1,E).split(" ");5==F?(z.push(parseFloat(D[0])),z.push(parseFloat(D[1])),
z.push(parseFloat(D[2])),z.push(ja(D[3]))):1==F?z.push(D[0]):z.push(parseFloat(D[0]));r=r.substring(E+1).trim();D=r.indexOf("(")}else break;r=z}G[A]=r}else 64==w?"none"!=k[p]?/^[0-9 .]*$/.test(k[p])?k[p]=Y(k[p]," "):(console.warn("unsupported value: "+k[p]),k[p]=[0]):k[p]=[0]:32==w?(H(k[p]),k[p]=parseFloat(k[p])):0===C&&(k[p]=parseFloat(k[p]));C=J(g,"e","easing");k=m.length;for(C||(C=[]);C.length<k;)C.push([1,0,0,.58,1]);for(k=0;k<C.length;++k)C[k]=ia(C[k]);l=[f,l,B,v,m,u,C,y];m=J(g,"mp","motionPath");
t(m)&&0===f&&(l[8]=[],l[8][0]=g.motionRotate,g=document.createElementNS("http://www.w3.org/2000/svg","path"),m||(m="M0,0"),g.setAttribute("d",m),l[8][1]=g,l[8][2]=g.getTotalLength());q.push(l)}0<q.length&&(a.A.push(e),a.C.push(q))}a.v=c;a.g=0;a.f=a.v;ba(a);return a},add:ba,remove:P,removeAll:function(){for(var a=w.length-1;0<=a;--a)P(w[a]);return this},timelines:function(){return w.slice()},globalPlay:function(){u&&(W=u-(new Date).getTime(),u=void 0,N());return this},globalPause:function(){u||(u=
v,O(!1));return this},globalState:function(){return u?"paused":"running"}}}();
]]></script>
    <script><![CDATA[if(KeyshapeJS.version.indexOf('1.')!=0)throw Error('Expected KeyshapeJS v1.*.*');window.ks=document.ks=KeyshapeJS;(function(ks){
ks.animate("#chat-1",[{p:'scaleX',t:[0,500,1000],v:[0,1.1,1],e:[[1,0.673,0,0.667,1],[1,0.333,0,0.338,1],[0]]},{p:'scaleY',t:[0,500,1000],v:[0,1.1,1],e:[[1,0.673,0,0.667,1],[1,0.333,0,0.338,1],[0]]}],
"#chat-1-2",[{p:'scaleX',t:[0,500,1000],v:[0,1.1,1],e:[[1,0.673,0,0.667,1],[1,0.333,0,0.338,1],[0]]},{p:'scaleY',t:[0,500,1000],v:[0,1.1,1],e:[[1,0.673,0,0.667,1],[1,0.333,0,0.338,1],[0]]}],
"#chat-1-3",[{p:'scaleX',t:[0,500,1000],v:[0,1.1,1],e:[[1,0.673,0,0.667,1],[1,0.333,0,0.338,1],[0]]},{p:'scaleY',t:[0,500,1000],v:[0,1.1,1],e:[[1,0.673,0,0.667,1],[1,0.333,0,0.338,1],[0]]}],
"#Path-5",[{p:'mpath',t:[500,1500],v:['0%','100%'],e:[[1,0.333,0,0,1],[0]],mp:"M-190,-48L0,-48"},{p:'opacity',t:[0,500,9750],v:[0,1,0],e:[[3,1],[3,1],[0]]}],
"#Path-20",[{p:'opacity',t:[0,500,9750],v:[0,1,0],e:[[3,1],[3,1],[0]]}],
"#chat-1-4",[{p:'scaleX',t:[0,500,1000],v:[0,1.1,1],e:[[1,0.673,0,0.667,1],[1,0.333,0,0.338,1],[0]]},{p:'scaleY',t:[0,500,1000],v:[0,1.1,1],e:[[1,0.673,0,0.667,1],[1,0.333,0,0.338,1],[0]]}],
"#Path-6",[{p:'mpath',t:[750,1750],v:['0%','100%'],e:[[1,0.333,0,0,1],[0]],mp:"M-172,0L-22,0"},{p:'opacity',t:[0,750,9750],v:[0,1,0],e:[[3,1],[3,1],[0]]}],
"#Path-21",[{p:'opacity',t:[0,750,9750],v:[0,1,0],e:[[3,1],[3,1],[0]]}],
"#chat-1-5",[{p:'scaleX',t:[0,500,1000],v:[0,1.1,1],e:[[1,0.673,0,0.667,1],[1,0.333,0,0.338,1],[0]]},{p:'scaleY',t:[0,500,1000],v:[0,1.1,1],e:[[1,0.673,0,0.667,1],[1,0.333,0,0.338,1],[0]]}],
"#Path-7",[{p:'mpath',t:[1000,2000],v:['0%','100%'],e:[[1,0.333,0,0,1],[0]],mp:"M-166,48L-26,48"},{p:'opacity',t:[0,1000,9750],v:[0,1,0],e:[[3,1],[3,1],[0]]}],
"#Path-22",[{p:'opacity',t:[0,1000,9750],v:[0,1,0],e:[[3,1],[3,1],[0]]}],
"#chat-1-6",[{p:'scaleX',t:[0,500,1000],v:[0,1.1,1],e:[[1,0.673,0,0.667,1],[1,0.333,0,0.338,1],[0]]},{p:'scaleY',t:[0,500,1000],v:[0,1.1,1],e:[[1,0.673,0,0.667,1],[1,0.333,0,0.338,1],[0]]}],
"#chat-1-7",[{p:'scaleX',t:[0,500,1000],v:[0,1.1,1],e:[[1,0.673,0,0.667,1],[1,0.333,0,0.338,1],[0]]},{p:'scaleY',t:[0,500,1000],v:[0,1.1,1],e:[[1,0.673,0,0.667,1],[1,0.333,0,0.338,1],[0]]}],
"#chat-2",[{p:'scaleX',t:[2500,3000,3500],v:[0,1.1,1],e:[[1,0.673,0,0.667,1],[1,0.333,0,0.338,1],[0]]},{p:'scaleY',t:[2500,3000,3500],v:[0,1.1,1],e:[[1,0.673,0,0.667,1],[1,0.333,0,0.338,1],[0]]}],
"#Shape-Layer-2",[{p:'opacity',t:[0,2500,9750],v:[0,1,0],e:[[3,1],[3,1],[0]]}],
"#chat-2-2",[{p:'scaleX',t:[2500,3000,3500],v:[0,1.1,1],e:[[1,0.673,0,0.667,1],[1,0.333,0,0.338,1],[0]]},{p:'scaleY',t:[2500,3000,3500],v:[0,1.1,1],e:[[1,0.673,0,0.667,1],[1,0.333,0,0.338,1],[0]]}],
"#Path-18",[{p:'opacity',t:[0,2500,9750],v:[0,1,0],e:[[3,1],[3,1],[0]]}],
"#chat-2-3",[{p:'scaleX',t:[2500,3000,3500],v:[0,1.1,1],e:[[1,0.673,0,0.667,1],[1,0.333,0,0.338,1],[0]]},{p:'scaleY',t:[2500,3000,3500],v:[0,1.1,1],e:[[1,0.673,0,0.667,1],[1,0.333,0,0.338,1],[0]]}],
"#Path-2",[{p:'mpath',t:[3000,4000],v:['0%','100%'],e:[[1,0.333,0,0,1],[0]],mp:"M-210,-48.5L0,-48.5"},{p:'opacity',t:[0,3000,9750],v:[0,1,0],e:[[3,1],[3,1],[0]]}],
"#Path-23",[{p:'opacity',t:[0,3000,9750],v:[0,1,0],e:[[3,1],[3,1],[0]]}],
"#chat-2-4",[{p:'scaleX',t:[2500,3000,3500],v:[0,1.1,1],e:[[1,0.673,0,0.667,1],[1,0.333,0,0.338,1],[0]]},{p:'scaleY',t:[2500,3000,3500],v:[0,1.1,1],e:[[1,0.673,0,0.667,1],[1,0.333,0,0.338,1],[0]]}],
"#Path-3",[{p:'mpath',t:[3250,4250],v:['0%','100%'],e:[[1,0.333,0,0,1],[0]],mp:"M-210,0L0,0"},{p:'opacity',t:[0,3250,9750],v:[0,1,0],e:[[3,1],[3,1],[0]]}],
"#Path-24",[{p:'opacity',t:[0,3250,9750],v:[0,1,0],e:[[3,1],[3,1],[0]]}],
"#chat-2-5",[{p:'scaleX',t:[2500,3000,3500],v:[0,1.1,1],e:[[1,0.673,0,0.667,1],[1,0.333,0,0.338,1],[0]]},{p:'scaleY',t:[2500,3000,3500],v:[0,1.1,1],e:[[1,0.673,0,0.667,1],[1,0.333,0,0.338,1],[0]]}],
"#Path-4",[{p:'mpath',t:[3500,4500],v:['0%','100%'],e:[[1,0.333,0,0,1],[0]],mp:"M-210,48.5L0,48.5"},{p:'opacity',t:[0,3500,9750],v:[0,1,0],e:[[3,1],[3,1],[0]]}],
"#Path-25",[{p:'opacity',t:[0,3500,9750],v:[0,1,0],e:[[3,1],[3,1],[0]]}],
"#chat-2-6",[{p:'scaleX',t:[2500,3000,3500],v:[0,1.1,1],e:[[1,0.673,0,0.667,1],[1,0.333,0,0.338,1],[0]]},{p:'scaleY',t:[2500,3000,3500],v:[0,1.1,1],e:[[1,0.673,0,0.667,1],[1,0.333,0,0.338,1],[0]]}],
"#Group-5-4",[{p:'opacity',t:[0,2500,9750],v:[0,1,0],e:[[3,1],[3,1],[0]]}],
"#chat-2-7",[{p:'scaleX',t:[2500,3000,3500],v:[0,1.1,1],e:[[1,0.673,0,0.667,1],[1,0.333,0,0.338,1],[0]]},{p:'scaleY',t:[2500,3000,3500],v:[0,1.1,1],e:[[1,0.673,0,0.667,1],[1,0.333,0,0.338,1],[0]]},{p:'opacity',t:[0,2500,9750],v:[0,1,0],e:[[3,1],[3,1],[0]]}],
{autoremove:false}).range(0,9500).loop(true);
if(document.location.search.substr(1).split('&').indexOf('global=paused')>=0)ks.globalPause()})(KeyshapeJS);
]]></script>
</svg>
