<svg width="958" height="349" viewBox="0 0 958 349" fill="none" xmlns="http://www.w3.org/2000/svg">
<rect y="27.9995" width="958" height="318" fill="white"/>
<path d="M68.5156 59.9062V261H42.5V59.9062H68.5156ZM173.141 113.344C215.141 113.344 236.141 134.109 236.141 175.641C236.141 181.547 235.719 187.875 234.875 194.625H131.234C131.234 224.812 148.859 239.906 184.109 239.906C200.891 239.906 215.797 238.031 228.828 234.281V255.375C215.797 259.125 199.953 261 181.297 261C130.578 261 105.219 235.828 105.219 185.484C105.219 137.391 127.859 113.344 173.141 113.344ZM131.234 172.969H211.109C210.547 147.094 197.891 134.156 173.141 134.156C146.891 134.156 132.922 147.094 131.234 172.969ZM369.875 138.375C360.969 136.125 349.953 135 336.828 135C305.422 135 289.719 152.016 289.719 186.047C289.719 221.016 304.578 238.5 334.297 238.5C347.797 238.5 359.656 235.969 369.875 230.906V138.375ZM395.891 261C395.891 296.625 373.25 314.438 327.969 314.438C309.781 314.438 293.656 312.094 279.594 307.406V286.312C293.938 291 310.156 293.344 328.25 293.344C356 293.344 369.875 282.562 369.875 261V253.969C358.812 258.656 346.906 261 334.156 261C287.469 261 264.125 236.109 264.125 186.328C264.125 137.672 288.734 113.344 337.953 113.344C357.922 113.344 377.234 115.359 395.891 119.391V261ZM431.188 216.422C431.188 186.141 451.156 171 491.094 171C503.938 171 516.781 171.938 529.625 173.812V159.891C529.625 142.922 516.359 134.438 489.828 134.438C474.641 134.438 459.078 136.781 443.141 141.469V120.375C459.078 115.688 474.641 113.344 489.828 113.344C533.703 113.344 555.641 128.625 555.641 159.188V261H541.016L532.016 246.375C517.297 256.125 501.266 261 483.922 261C448.766 261 431.188 246.141 431.188 216.422ZM491.094 192.094C468.5 192.094 457.203 200.062 457.203 216C457.203 231.938 466.109 239.906 483.922 239.906C501.922 239.906 517.156 235.125 529.625 225.562V194.906C516.781 193.031 503.938 192.094 491.094 192.094ZM597.969 261V113.344H615.547L620.188 132.188C635.281 119.625 651.875 113.344 669.969 113.344C706.812 113.344 725.234 131.672 725.234 168.328V261H699.219V167.906C699.219 145.969 688.297 135 666.453 135C651.547 135 637.391 141.234 623.984 153.703V261H597.969ZM796.391 113.344V261H770.375V113.344H796.391Z" fill="#006699"/>
<path d="M744.349 113.166L744.618 87.1518L770.632 87.4206L770.364 113.435L744.349 113.166Z" fill="#006699"/>
<rect x="598" y="112.999" width="25" height="21" fill="#006699"/>
<rect x="530" y="239.999" width="23" height="21" fill="#006699"/>
<circle cx="842.321" cy="122.368" r="10.3455" transform="rotate(-3.82905 842.321 122.368)" fill="#006699"/>
<circle cx="853.58" cy="144.207" r="10.3455" transform="rotate(-3.82905 853.58 144.207)" fill="#006699"/>
<circle cx="865.86" cy="165.242" r="10.3455" transform="rotate(-3.82905 865.86 165.242)" fill="#006699"/>
<circle cx="878.5" cy="187.499" r="10.5" fill="#006699"/>
<circle cx="889.54" cy="164.99" r="10.3455" transform="rotate(-119.33 889.54 164.99)" fill="#006699"/>
<circle cx="902.285" cy="143.277" r="10.3455" transform="rotate(-119.33 902.285 143.277)" fill="#006699"/>
<circle cx="913.034" cy="121.492" r="10.3455" transform="rotate(-119.33 913.034 121.492)" fill="#006699"/>
<circle cx="912.7" cy="250.761" r="10.3455" transform="rotate(176.895 912.7 250.761)" fill="#006699"/>
<circle cx="901.69" cy="229.757" r="10.3455" transform="rotate(176.895 901.69 229.757)" fill="#006699"/>
<circle cx="889.691" cy="208.592" r="10.3455" transform="rotate(176.895 889.691 208.592)" fill="#006699"/>
<circle cx="865.71" cy="208.72" r="10.3455" transform="rotate(60.846 865.71 208.72)" fill="#006699"/>
<circle cx="854.683" cy="229.975" r="10.3455" transform="rotate(60.846 854.683 229.975)" fill="#006699"/>
<circle cx="843.075" cy="250.163" r="10.3455" transform="rotate(60.846 843.075 250.163)" fill="#006699"/>
</svg>
