<?xml version="1.0"?>
<svg xmlns="http://www.w3.org/2000/svg" xmlns:xlink="http://www.w3.org/1999/xlink" xmlns:svgjs="http://svgjs.com/svgjs" version="1.1" width="512" height="512" x="0" y="0" viewBox="0 0 512 512" style="enable-background:new 0 0 512 512" xml:space="preserve" class=""><g>
<g xmlns="http://www.w3.org/2000/svg">
	<g>
		<g>
			<path d="M444.862,109.779L338.221,3.138C336.29,1.201,333.621,0,330.667,0h-224C83.146,0,64,19.135,64,42.667v426.667     C64,492.865,83.146,512,106.667,512h298.667C428.854,512,448,492.865,448,469.333v-352     C448,114.379,446.799,111.71,444.862,109.779z M138.667,106.667h128c5.896,0,10.667,4.771,10.667,10.667     c0,5.896-4.771,10.667-10.667,10.667h-128c-5.896,0-10.667-4.771-10.667-10.667C128,111.438,132.771,106.667,138.667,106.667z      M295.479,402.271C249.042,448,238.229,448,234.667,448c-13.25,0-18-15.208-22.917-31.5c-7.438,15.094-16,31.5-30.417,31.5     c-7.417,0-16.292-4.885-24.646-12.323c-3.979,3.958-7.938,7.427-11.625,10.188c-1.917,1.438-4.167,2.135-6.396,2.135     c-3.229,0-6.438-1.469-8.542-4.271c-3.521-4.708-2.563-11.396,2.146-14.927c3.375-2.542,6.813-5.604,10.188-8.979     C133.979,408.125,128,394.792,128,384c0-24.344,19.417-42.667,32-42.667c12.375,0,32,8.688,32,32     c0,13.583-9.438,31.156-21.188,46.333c4.354,4.063,8.313,6.76,10.625,7c2.354-1.656,8.833-14.844,11.958-21.177     c6.375-12.938,10.583-21.49,19.938-21.49c10.938,0,14.333,11.344,18.667,25.708c1.271,4.26,3.375,11.281,5.229,15.479     c7.833-5.292,27.604-22.688,43.292-38.125c4.208-4.115,10.958-4.094,15.083,0.125     C299.729,391.385,299.688,398.135,295.479,402.271z M373.333,320H224c-5.896,0-10.667-4.771-10.667-10.667     c0-5.896,4.771-10.667,10.667-10.667h149.333c5.896,0,10.667,4.771,10.667,10.667C384,315.229,379.229,320,373.333,320z      M373.333,256H138.667c-5.896,0-10.667-4.771-10.667-10.667c0-5.896,4.771-10.667,10.667-10.667h234.667     c5.896,0,10.667,4.771,10.667,10.667C384,251.229,379.229,256,373.333,256z M373.333,192H138.667     c-5.896,0-10.667-4.771-10.667-10.667c0-5.896,4.771-10.667,10.667-10.667h234.667c5.896,0,10.667,4.771,10.667,10.667     C384,187.229,379.229,192,373.333,192z M362.667,106.667c-11.771,0-21.333-9.573-21.333-21.333V36.417l70.25,70.25H362.667z" fill="#006699" data-original="#000000" style=""/>
			<path d="M160,362.667c-1.125,0.708-10.667,8.323-10.667,21.333c0,5.458,3.083,12.313,7.417,18.917     c8.167-11.302,13.917-22.781,13.917-29.583C170.667,363.177,161.771,362.667,160,362.667z" fill="#006699" data-original="#000000" style=""/>
		</g>
	</g>
</g>
<g xmlns="http://www.w3.org/2000/svg">
</g>
<g xmlns="http://www.w3.org/2000/svg">
</g>
<g xmlns="http://www.w3.org/2000/svg">
</g>
<g xmlns="http://www.w3.org/2000/svg">
</g>
<g xmlns="http://www.w3.org/2000/svg">
</g>
<g xmlns="http://www.w3.org/2000/svg">
</g>
<g xmlns="http://www.w3.org/2000/svg">
</g>
<g xmlns="http://www.w3.org/2000/svg">
</g>
<g xmlns="http://www.w3.org/2000/svg">
</g>
<g xmlns="http://www.w3.org/2000/svg">
</g>
<g xmlns="http://www.w3.org/2000/svg">
</g>
<g xmlns="http://www.w3.org/2000/svg">
</g>
<g xmlns="http://www.w3.org/2000/svg">
</g>
<g xmlns="http://www.w3.org/2000/svg">
</g>
<g xmlns="http://www.w3.org/2000/svg">
</g>
</g></svg>
