<?xml version="1.0"?>
<svg xmlns="http://www.w3.org/2000/svg" xmlns:xlink="http://www.w3.org/1999/xlink" xmlns:svgjs="http://svgjs.com/svgjs" version="1.1" width="512" height="512" x="0" y="0" viewBox="0 0 512 512" style="enable-background:new 0 0 512 512" xml:space="preserve"><g><g xmlns="http://www.w3.org/2000/svg"><path d="m301 136c0-24.814-20.186-46-45-46s-45 21.186-45 46v45h90z" fill="#006699" data-original="#000000" style=""/><path d="m256 361c41.367 0 75-33.647 75-75v-75h-150v75c0 41.353 33.633 75 75 75zm-15-120h30v90h-30z" fill="#006699" data-original="#000000" style=""/><path d="m251.869 510.828 4.131 1.172 4.131-1.172c130.049-37.163 220.869-158.163 220.869-293.236v-187.592h-68.789l-30-30h-252.422l-30 30h-68.789v187.592c0 135.073 90.82 256.073 220.869 293.236zm-100.869-329.828h30v-45c0-41.353 33.633-76 75-76s75 34.647 75 76v45h30v105c0 57.891-47.109 105-105 105s-105-47.109-105-105z" fill="#006699" data-original="#000000" style=""/></g></g></svg>
