<?xml version="1.0"?>
<svg xmlns="http://www.w3.org/2000/svg" xmlns:xlink="http://www.w3.org/1999/xlink" xmlns:svgjs="http://svgjs.com/svgjs" version="1.1" width="512" height="512" x="0" y="0" viewBox="0 0 512 512" style="enable-background:new 0 0 512 512" xml:space="preserve" class=""><g><g xmlns="http://www.w3.org/2000/svg"><path d="m194.408 223.604c-3.887-1.436-8.199.555-9.632 4.44l-12.78 34.642-9.881-27.722c-.001-.004-.003-.007-.004-.011-1.071-2.987-3.883-4.941-7.001-4.964-3.241-.027-6.056 2.013-7.119 4.964-.001.004-.003.007-.004.011l-9.88 27.722-12.78-34.642c-1.433-3.887-5.751-5.877-9.632-4.44-3.887 1.434-5.874 5.746-4.44 9.632l19.938 54.045c1.087 2.948 3.896 4.904 7.036 4.904h.042c3.155-.018 5.963-2.009 7.022-4.982l9.758-27.381 9.759 27.381c1.06 2.974 3.867 4.965 7.022 4.982h.042c3.14 0 5.949-1.956 7.036-4.904l19.938-54.045c1.434-3.885-.553-8.198-4.44-9.632z" fill="#006699" data-original="#000000" style="" class=""/><path d="m295.356 223.604c-3.885-1.436-8.199.555-9.632 4.44l-12.78 34.642-9.88-27.722c-.001-.004-.003-.007-.004-.011-1.103-3.066-3.955-4.942-7.001-4.965-3.228-.024-6.049 1.988-7.119 4.965-.001.004-.003.007-.004.011l-9.88 27.722-12.781-34.642c-1.435-3.887-5.749-5.877-9.632-4.44-3.887 1.434-5.874 5.746-4.44 9.632l19.939 54.045c1.088 2.948 3.896 4.904 7.036 4.904h.042c3.156-.018 5.963-2.009 7.022-4.982l9.758-27.38 9.758 27.38c1.06 2.974 3.867 4.965 7.022 4.982h.042c3.14 0 5.949-1.956 7.036-4.904l19.938-54.045c1.434-3.885-.553-8.198-4.44-9.632z" fill="#006699" data-original="#000000" style="" class=""/><path d="m333.09 287.281c1.087 2.948 3.896 4.904 7.036 4.904h.042c3.155-.018 5.963-2.009 7.022-4.982l9.759-27.381 9.758 27.381c1.06 2.974 3.867 4.965 7.022 4.982h.042c3.14 0 5.949-1.956 7.036-4.904l19.938-54.045c1.434-3.886-.554-8.198-4.44-9.632-3.889-1.436-8.198.555-9.632 4.44l-12.78 34.642-9.88-27.722c-.001-.004-.003-.007-.004-.011-1.063-2.964-3.853-4.941-7.001-4.964-3.269-.025-6.067 2.043-7.119 4.964-.001.004-.003.007-.004.011l-9.881 27.722-12.78-34.642c-1.434-3.887-5.748-5.877-9.632-4.44-3.887 1.434-5.874 5.746-4.44 9.632z" fill="#006699" data-original="#000000" style="" class=""/><path d="m500.598 180.24c-1.225-3.956-5.418-6.174-9.382-4.948-3.957 1.225-6.173 5.425-4.948 9.382 6.389 20.645 9.942 42.081 10.608 63.826h-52.499v-46.91c0-13.55-11.024-24.573-24.574-24.573h-16.233c-4.172-21.454-9.963-41.652-17.224-60.247 18.615-5.256 35.87-11.65 51.246-19.071 14.436 16.475 26.74 35.03 36.349 55.33 1.771 3.743 6.245 5.341 9.988 3.57 3.743-1.772 5.342-6.244 3.57-9.988-41.969-88.671-131.507-146.611-231.499-146.611-141.385 0-256 114.611-256 256 0 140.861 114.016 256 256 256 141.297 0 256-114.449 256-256 0-25.818-3.836-51.308-11.402-75.76zm-73.765-94.046c-14.022 6.441-29.6 12.021-46.323 16.656-13.32-29.551-32.644-58.584-57.848-78.336 39.357 11.43 75.28 32.75 104.171 61.68zm-163.333-70.841c47.131 4.313 81.971 47.605 102.14 91.296-31.478 7.398-66.333 11.604-102.14 12.121zm0 118.419c37.887-.535 74.828-5.11 108.132-13.159 6.959 17.48 12.587 36.47 16.647 56.403h-124.779zm-15-118.419v103.417c-35.806-.517-70.662-4.724-102.14-12.121 20.195-43.747 55.067-86.989 102.14-91.296zm0 118.419v43.244h-124.779c4.06-19.933 9.688-38.923 16.647-56.403 33.304 8.05 70.245 12.625 108.132 13.159zm-59.067-109.332c-25.379 19.855-44.701 49.032-57.942 78.41-16.727-4.636-32.309-10.217-46.333-16.66 29.08-29.256 64.63-50.32 104.275-61.75zm-115.005 73.268c15.371 7.417 32.619 13.808 51.226 19.062-7.261 18.595-13.051 38.793-17.224 60.247h-16.234c-13.55 0-24.573 11.023-24.573 24.573v46.91h-52.495c1.77-57.601 23.845-110.175 59.3-150.792zm0 316.584c-35.455-40.617-57.529-93.192-59.3-150.792h52.495v46.91c0 13.55 11.023 24.573 24.573 24.573h16.233c4.172 21.454 9.963 41.652 17.224 60.247-18.607 5.254-35.855 11.645-51.225 19.062zm10.729 11.519c14.024-6.443 29.605-12.024 46.333-16.661 13.244 29.384 32.57 58.56 57.942 78.41-39.529-11.396-75.136-32.436-104.275-61.749zm163.343 70.836c-47.15-4.315-81.975-47.623-102.136-91.297 31.476-7.397 66.331-11.603 102.136-12.12zm0-118.419c-37.886.535-74.826 5.109-108.13 13.158-6.959-17.48-12.587-36.469-16.647-56.402h124.777zm-156.304-58.245c-5.278 0-9.573-4.295-9.573-9.573v-108.82c0-5.278 4.295-9.573 9.573-9.573h22.459 282.689 22.458c5.279 0 9.574 4.295 9.574 9.573v108.82c0 5.278-4.295 9.573-9.574 9.573h-84.483c-4.143 0-7.5 3.357-7.5 7.5s3.357 7.5 7.5 7.5h52.958c-4.061 19.933-9.688 38.922-16.647 56.402-33.304-8.048-70.244-12.623-108.13-13.158v-43.244h36.819c4.143 0 7.5-3.357 7.5-7.5s-3.357-7.5-7.5-7.5zm171.304 176.664v-103.417c35.806.517 70.66 4.723 102.136 12.12-20.199 43.758-55.063 86.99-102.136 91.297zm59.068-9.087c25.38-19.856 44.701-49.035 57.942-78.41 16.727 4.636 32.309 10.217 46.333 16.66-27.972 28.141-63.294 49.934-104.275 61.75zm115.005-73.268c-15.371-7.417-32.618-13.808-51.226-19.061 7.261-18.595 13.051-38.793 17.224-60.247h16.232c13.55 0 24.574-11.023 24.574-24.573v-46.911h52.495c-1.77 57.6-23.845 110.175-59.299 150.792z" fill="#006699" data-original="#000000" style="" class=""/></g></g></svg>
