<?xml version="1.0"?>
<svg xmlns="http://www.w3.org/2000/svg" xmlns:xlink="http://www.w3.org/1999/xlink" xmlns:svgjs="http://svgjs.com/svgjs" version="1.1" width="512" height="512" x="0" y="0" viewBox="0 0 511 512" style="enable-background:new 0 0 512 512" xml:space="preserve" class=""><g>
<g xmlns="http://www.w3.org/2000/svg" id="surface1">
<path d="M 228.199219 0 L 258.199219 0 L 258.199219 49 L 228.199219 49 Z M 228.199219 0 " style="" fill="#006699" data-original="#000000" class=""/>
<path d="M 229.027344 249.394531 L 193.671875 216.011719 L 173.074219 237.820312 L 229.265625 290.886719 L 313.449219 209.519531 L 292.597656 187.949219 Z M 229.027344 249.394531 " style="" fill="#006699" data-original="#000000" class=""/>
<path d="M 243.199219 76.5 C 150.566406 76.5 75.207031 151.859375 75.207031 244.492188 C 75.207031 274.167969 83.058594 303.339844 97.90625 328.855469 C 110.847656 351.09375 128.820312 370.152344 150.203125 384.398438 L 150.203125 512 L 336.195312 512 L 336.195312 384.398438 C 357.578125 370.15625 375.550781 351.09375 388.492188 328.855469 C 403.34375 303.339844 411.191406 274.167969 411.191406 244.492188 C 411.191406 151.859375 335.828125 76.5 243.199219 76.5 Z M 306.195312 482 L 180.203125 482 L 180.203125 454.5 L 306.195312 454.5 Z M 306.195312 424.5 L 180.203125 424.5 L 180.203125 397.5 L 306.195312 397.5 Z M 313.535156 363.226562 L 306.335938 367.5 L 180.058594 367.5 L 172.863281 363.226562 C 131.132812 338.445312 105.207031 292.949219 105.207031 244.492188 C 105.207031 168.402344 167.109375 106.5 243.199219 106.5 C 319.289062 106.5 381.191406 168.402344 381.191406 244.492188 C 381.191406 292.949219 355.265625 338.445312 313.535156 363.226562 Z M 313.535156 363.226562 " style="" fill="#006699" data-original="#000000" class=""/>
<path d="M 327.945312 68.25 L 352.492188 25.839844 L 378.457031 40.871094 L 353.910156 83.28125 Z M 327.945312 68.25 " style="" fill="#006699" data-original="#000000" class=""/>
<path d="M 404.597656 134.886719 L 447.082031 110.480469 L 462.027344 136.492188 L 419.539062 160.898438 Z M 404.597656 134.886719 " style="" fill="#006699" data-original="#000000" class=""/>
<path d="M 437.484375 260.992188 L 437.585938 230.992188 L 486.585938 231.160156 L 486.484375 261.160156 Z M 437.484375 260.992188 " style="" fill="#006699" data-original="#000000" class=""/>
<path d="M 402.875 356.578125 L 417.992188 330.660156 L 460.316406 355.351562 L 445.199219 381.269531 Z M 402.875 356.578125 " style="" fill="#006699" data-original="#000000" class=""/>
<path d="M 108.625 40.886719 L 134.589844 25.855469 L 159.140625 68.265625 L 133.175781 83.296875 Z M 108.625 40.886719 " style="" fill="#006699" data-original="#000000" class=""/>
<path d="M 25.019531 136.515625 L 39.960938 110.503906 L 82.449219 134.90625 L 67.507812 160.917969 Z M 25.019531 136.515625 " style="" fill="#006699" data-original="#000000" class=""/>
<path d="M 0.5 231.160156 L 49.5 230.992188 L 49.601562 260.992188 L 0.601562 261.160156 Z M 0.5 231.160156 " style="" fill="#006699" data-original="#000000" class=""/>
<path d="M 26.785156 355.363281 L 69.109375 330.671875 L 84.226562 356.585938 L 41.902344 381.277344 Z M 26.785156 355.363281 " style="" fill="#006699" data-original="#000000" class=""/>
</g>
</g></svg>
