<?xml version="1.0" encoding="UTF-8" standalone="no"?>
<!-- Created with Keyshape -->
<svg xmlns="http://www.w3.org/2000/svg" id="leganix-2" shape-rendering="geometricPrecision" text-rendering="geometricPrecision" viewBox="0 0 1200 345" style="white-space: pre;">
    <defs>
        <mask id="Mask-1" style="mask-type: alpha;">
            <g id="Shape-Layer-2" transform="translate(534.449,171.502) scale(1,1.06844) translate(65.551,-2.002)">
                <g id="Rectangle-1" opacity="1" transform="translate(-65.551,2.002)">
                    <path id="Rectangle-Path-1" fill="#333334" d="M508.361,-202.385L508.361,120.516L-691.639,120.516L-691.639,-202.385L508.361,-202.385Z" fill-opacity="1" fill-rule="nonzero" stroke="#303030" stroke-opacity="1" stroke-width="4" stroke-miterlimit="4" stroke-linecap="butt" stroke-linejoin="miter"/>
                </g>
            </g>
        </mask>
        <mask id="Mask-2" style="mask-type: alpha;">
            <g id="Shape-Layer-3" opacity="0" transform="translate(534.449,171.502) scale(1,1.06844) translate(65.551,-2.002)">
                <g id="Rectangle-1-2" opacity="1" transform="translate(-65.551,2.002)">
                    <path id="Rectangle-Path-1-2" fill="#333334" d="M508.361,-202.385L508.361,120.516L-691.639,120.516L-691.639,-202.385L508.361,-202.385Z" fill-opacity="1" fill-rule="nonzero" stroke="#303030" stroke-opacity="1" stroke-width="4" stroke-miterlimit="4" stroke-linecap="butt" stroke-linejoin="miter"/>
                </g>
            </g>
        </mask>
        <mask id="Mask-3" style="mask-type: alpha;">
            <g id="Shape-Layer-4" opacity="0" transform="translate(534.449,171.502) scale(1,1.06844) translate(65.551,-2.002)">
                <g id="Rectangle-1-3" opacity="1" transform="translate(-65.551,2.002)">
                    <path id="Rectangle-Path-1-3" fill="#333334" d="M508.361,-202.385L508.361,120.516L-691.639,120.516L-691.639,-202.385L508.361,-202.385Z" fill-opacity="1" fill-rule="nonzero" stroke="#303030" stroke-opacity="1" stroke-width="4" stroke-miterlimit="4" stroke-linecap="butt" stroke-linejoin="miter"/>
                </g>
            </g>
        </mask>
        <mask id="Mask-4" style="mask-type: alpha;">
            <g id="Shape-Layer-5" opacity="0" transform="translate(534.449,171.502) scale(1,1.06844) translate(65.551,-2.002)">
                <g id="Rectangle-1-4" opacity="1" transform="translate(-65.551,2.002)">
                    <path id="Rectangle-Path-1-4" fill="#333334" d="M508.361,-202.385L508.361,120.516L-691.639,120.516L-691.639,-202.385L508.361,-202.385Z" fill-opacity="1" fill-rule="nonzero" stroke="#303030" stroke-opacity="1" stroke-width="4" stroke-miterlimit="4" stroke-linecap="butt" stroke-linejoin="miter"/>
                </g>
            </g>
        </mask>
        <mask id="Mask-5" style="mask-type: alpha;">
            <g id="Shape-Layer-6" opacity="0" transform="translate(534.449,171.502) scale(1,1.06844) translate(65.551,-2.002)">
                <g id="Rectangle-1-5" opacity="1" transform="translate(-65.551,2.002)">
                    <path id="Rectangle-Path-1-5" fill="#333334" d="M508.361,-202.385L508.361,120.516L-691.639,120.516L-691.639,-202.385L508.361,-202.385Z" fill-opacity="1" fill-rule="nonzero" stroke="#303030" stroke-opacity="1" stroke-width="4" stroke-miterlimit="4" stroke-linecap="butt" stroke-linejoin="miter"/>
                </g>
            </g>
        </mask>
        <mask id="Mask-6" style="mask-type: alpha;">
            <g id="Shape-Layer-7" opacity="0" transform="translate(534.449,171.502) scale(1,1.06844) translate(65.551,-2.002)">
                <g id="Rectangle-1-6" opacity="1" transform="translate(-65.551,2.002)">
                    <path id="Rectangle-Path-1-6" fill="#333334" d="M508.361,-202.385L508.361,120.516L-691.639,120.516L-691.639,-202.385L508.361,-202.385Z" fill-opacity="1" fill-rule="nonzero" stroke="#303030" stroke-opacity="1" stroke-width="4" stroke-miterlimit="4" stroke-linecap="butt" stroke-linejoin="miter"/>
                </g>
            </g>
        </mask>
        <mask id="Mask-7" style="mask-type: alpha;">
            <g id="Shape-Layer-8" opacity="0" transform="translate(534.449,171.502) scale(1,1.06844) translate(65.551,-2.002)">
                <g id="Rectangle-1-7" opacity="1" transform="translate(-65.551,2.002)">
                    <path id="Rectangle-Path-1-7" fill="#333334" d="M508.361,-202.385L508.361,131.501L-691.639,131.501L-691.639,-202.385L508.361,-202.385Z" fill-opacity="1" fill-rule="nonzero" stroke="#303030" stroke-opacity="1" stroke-width="4" stroke-miterlimit="4" stroke-linecap="butt" stroke-linejoin="miter" transform="translate(0,-10.9851)"/>
                </g>
            </g>
        </mask>
    </defs>
    <g id="▽-leganix" transform="translate(599.5,172) translate(-442.31,-127.266)">
        <g id="X" opacity="0" transform="translate(835.561,125.916) translate(-51.56,-80.917)">
            <g id="▽-x" transform="translate(52,81) translate(-49.06,-78.417)">
                <g id="▽-Group" transform="translate(48.449,79.099) translate(-46.141,-75.148)">
                    <g id="Oval-4" transform="translate(47.192,76.144) scale(0,0)">
                        <g id="Oval" opacity="1">
                            <path id="Path-1" fill="#006699" d="M0,10.5C5.8,10.5,10.5,5.8,10.5,0C10.5,-5.8,5.8,-10.5,0,-10.5C-5.8,-10.5,-10.5,-5.8,-10.5,0C-10.5,5.8,-5.8,10.5,0,10.5Z" fill-opacity="1" fill-rule="nonzero"/>
                        </g>
                    </g>
                </g>
            </g>
            <g id="▽-x-2" transform="translate(52,81) translate(-49.06,-78.417)">
                <g id="▽-Group-2" transform="translate(48.449,79.099) translate(-46.141,-75.148)">
                    <g id="Oval-3" opacity="0" transform="translate(34.552,53.887) scale(0,0)">
                        <g id="Oval-14" opacity="1" transform="translate(0,0) rotate(-3.829)">
                            <path id="Path-1-2" fill="#006699" d="M0.005,10.344C5.715,10.344,10.344,5.715,10.344,0.005C10.344,-5.715,5.715,-10.346,0.005,-10.346C-5.715,-10.346,-10.346,-5.715,-10.346,0.005C-10.346,5.715,-5.715,10.344,0.005,10.344Z" fill-opacity="1" fill-rule="nonzero"/>
                        </g>
                    </g>
                </g>
            </g>
            <g id="▽-x-3" transform="translate(52,81) translate(-49.06,-78.417)">
                <g id="▽-Group-4" transform="translate(48.449,79.099) translate(-46.141,-75.148)">
                    <g id="Oval-7" opacity="0" transform="translate(58.383,97.237) scale(0,0)">
                        <g id="Oval-15" opacity="1" transform="translate(0,0) rotate(176.895)">
                            <path id="Path-1-3" fill="#006699" d="M0.005,10.344C5.715,10.344,10.344,5.715,10.344,0.005C10.344,-5.715,5.715,-10.346,0.005,-10.346C-5.715,-10.346,-10.346,-5.715,-10.346,0.005C-10.346,5.715,-5.715,10.344,0.005,10.344Z" fill-opacity="1" fill-rule="nonzero"/>
                        </g>
                    </g>
                </g>
            </g>
            <g id="▽-x-4" transform="translate(52,81) translate(-49.06,-78.417)">
                <g id="▽-Group-3" transform="translate(49.06,78.417) translate(-49.06,-78.417)">
                    <g id="Oval-8" opacity="0" transform="translate(60.54,57.585) scale(0,0)">
                        <g id="Oval-16" opacity="1" transform="translate(0,0) rotate(-119.33)">
                            <path id="Path-1-4" fill="#006699" d="M0.005,10.344C5.715,10.344,10.344,5.715,10.344,0.005C10.344,-5.715,5.715,-10.346,0.005,-10.346C-5.715,-10.346,-10.346,-5.715,-10.346,0.005C-10.346,5.715,-5.715,10.344,0.005,10.344Z" fill-opacity="1" fill-rule="nonzero"/>
                        </g>
                    </g>
                </g>
            </g>
            <g id="▽-x-5" transform="translate(52,81) translate(-49.06,-78.417)">
                <g id="▽-Group-3-2" transform="translate(49.06,78.417) translate(-49.06,-78.417)">
                    <g id="Oval-11" opacity="0" transform="translate(36.71,101.315) scale(0,0)">
                        <g id="Oval-17" opacity="1" transform="translate(0,0) rotate(60.846)">
                            <path id="Path-1-5" fill="#006699" d="M0.005,10.344C5.715,10.344,10.344,5.715,10.344,0.005C10.344,-5.715,5.715,-10.346,0.005,-10.346C-5.715,-10.346,-10.346,-5.715,-10.346,0.005C-10.346,5.715,-5.715,10.344,0.005,10.344Z" fill-opacity="1" fill-rule="nonzero"/>
                        </g>
                    </g>
                </g>
            </g>
            <g id="▽-x-6" transform="translate(52,81) translate(-49.06,-78.417)">
                <g id="▽-Group-5" transform="translate(48.449,79.099) translate(-46.141,-75.148)">
                    <g id="Oval-2" opacity="0" transform="translate(22.272,32.851) scale(0,0)">
                        <g id="Oval-18" opacity="1" transform="translate(0,0) rotate(-3.829)">
                            <path id="Path-1-6" fill="#006699" d="M0.005,10.344C5.715,10.344,10.344,5.715,10.344,0.005C10.344,-5.715,5.715,-10.346,0.005,-10.346C-5.715,-10.346,-10.346,-5.715,-10.346,0.005C-10.346,5.715,-5.715,10.344,0.005,10.344Z" fill-opacity="1" fill-rule="nonzero"/>
                        </g>
                    </g>
                </g>
            </g>
            <g id="▽-x-7" transform="translate(52,81) translate(-49.06,-78.417)">
                <g id="▽-Group-6" transform="translate(48.449,79.099) translate(-46.141,-75.148)">
                    <g id="Oval-6" opacity="0" transform="translate(70.382,118.401) scale(0,0)">
                        <g id="Oval-19" opacity="1" transform="translate(0,0) rotate(176.895)">
                            <path id="Path-1-7" fill="#006699" d="M0.005,10.344C5.715,10.344,10.344,5.715,10.344,0.005C10.344,-5.715,5.715,-10.346,0.005,-10.346C-5.715,-10.346,-10.346,-5.715,-10.346,0.005C-10.346,5.715,-5.715,10.344,0.005,10.344Z" fill-opacity="1" fill-rule="nonzero"/>
                        </g>
                    </g>
                </g>
            </g>
            <g id="▽-x-8" transform="translate(52,81) translate(-49.06,-78.417)">
                <g id="▽-Group-7" transform="translate(48.449,79.099) translate(-46.141,-75.148)"/>
            </g>
            <g id="▽-x-9" transform="translate(52,81) translate(-49.06,-78.417)">
                <g id="▽-Group-3-3" transform="translate(49.06,78.417) translate(-49.06,-78.417)">
                    <g id="Oval-9" opacity="0" transform="translate(73.285,35.873) scale(0,0)">
                        <g id="Oval-20" opacity="1" transform="translate(0,0) rotate(-119.33)">
                            <path id="Path-1-8" fill="#006699" d="M0.005,10.344C5.715,10.344,10.344,5.715,10.344,0.005C10.344,-5.715,5.715,-10.346,0.005,-10.346C-5.715,-10.346,-10.346,-5.715,-10.346,0.005C-10.346,5.715,-5.715,10.344,0.005,10.344Z" fill-opacity="1" fill-rule="nonzero"/>
                        </g>
                    </g>
                </g>
            </g>
            <g id="▽-x-10" transform="translate(52,81) translate(-49.06,-78.417)">
                <g id="▽-Group-3-4" transform="translate(49.06,78.417) translate(-49.06,-78.417)">
                    <g id="Oval-12" opacity="0" transform="translate(25.683,122.571) scale(0,0)">
                        <g id="Oval-21" opacity="1" transform="translate(0,0) rotate(60.846)">
                            <path id="Path-1-9" fill="#006699" d="M0.005,10.344C5.715,10.344,10.344,5.715,10.344,0.005C10.344,-5.715,5.715,-10.346,0.005,-10.346C-5.715,-10.346,-10.346,-5.715,-10.346,0.005C-10.346,5.715,-5.715,10.344,0.005,10.344Z" fill-opacity="1" fill-rule="nonzero"/>
                        </g>
                    </g>
                </g>
            </g>
            <g id="▽-x-11" transform="translate(52,81) translate(-49.06,-78.417)">
                <g id="▽-Group-8" transform="translate(48.449,79.099) translate(-46.141,-75.148)">
                    <g id="Oval-22" opacity="0" transform="translate(11.013,11.013) scale(0,0)">
                        <g id="Oval-23" opacity="1" transform="translate(0,0) rotate(-3.829)">
                            <path id="Path-1-10" fill="#006699" d="M0.005,10.344C5.715,10.344,10.344,5.715,10.344,0.005C10.344,-5.715,5.715,-10.346,0.005,-10.346C-5.715,-10.346,-10.346,-5.715,-10.346,0.005C-10.346,5.715,-5.715,10.344,0.005,10.344Z" fill-opacity="1" fill-rule="nonzero"/>
                        </g>
                    </g>
                </g>
            </g>
            <g id="▽-x-12" transform="translate(52,81) translate(-49.06,-78.417)">
                <g id="▽-Group-9" transform="translate(48.449,79.099) translate(-46.141,-75.148)">
                    <g id="Oval-5" opacity="0" transform="translate(81.392,139.405) scale(0,0)">
                        <g id="Oval-24" opacity="1" transform="translate(0,0) rotate(176.895)">
                            <path id="Path-1-11" fill="#006699" d="M0.005,10.344C5.715,10.344,10.344,5.715,10.344,0.005C10.344,-5.715,5.715,-10.346,0.005,-10.346C-5.715,-10.346,-10.346,-5.715,-10.346,0.005C-10.346,5.715,-5.715,10.344,0.005,10.344Z" fill-opacity="1" fill-rule="nonzero"/>
                        </g>
                    </g>
                </g>
            </g>
            <g id="▽-x-13" transform="translate(52,81) translate(-49.06,-78.417)">
                <g id="▽-Group-3-5" transform="translate(49.06,78.417) translate(-49.06,-78.417)">
                    <g id="Oval-10" opacity="0" transform="translate(84.034,14.087) scale(0,0)">
                        <g id="Oval-25" opacity="1" transform="translate(0,0) rotate(-119.33)">
                            <path id="Path-1-12" fill="#006699" d="M0.005,10.344C5.715,10.344,10.344,5.715,10.344,0.005C10.344,-5.715,5.715,-10.346,0.005,-10.346C-5.715,-10.346,-10.346,-5.715,-10.346,0.005C-10.346,5.715,-5.715,10.344,0.005,10.344Z" fill-opacity="1" fill-rule="nonzero"/>
                        </g>
                    </g>
                </g>
            </g>
            <g id="▽-x-14" transform="translate(52,81) translate(-49.06,-78.417)">
                <g id="▽-Group-3-6" transform="translate(49.06,78.417) translate(-49.06,-78.417)">
                    <g id="Oval-13" opacity="0" transform="translate(14.075,142.759) scale(0,0)">
                        <g id="Oval-26" opacity="1" transform="translate(0,0) rotate(60.846)">
                            <path id="Path-1-13" fill="#006699" d="M0.005,10.344C5.715,10.344,10.344,5.715,10.344,0.005C10.344,-5.715,5.715,-10.346,0.005,-10.346C-5.715,-10.346,-10.346,-5.715,-10.346,0.005C-10.346,5.715,-5.715,10.344,0.005,10.344Z" fill-opacity="1" fill-rule="nonzero"/>
                        </g>
                    </g>
                </g>
            </g>
            <g id="▽-x-15" transform="translate(52,81) translate(-49.06,-78.417)">
                <g id="▽-Group-3-7" transform="translate(49.06,78.417) translate(-49.06,-78.417)"/>
            </g>
            <g id="▽-x-16" transform="translate(52,81) translate(-49.06,-78.417)"/>
        </g>
    </g>
    <g id="▽-leganix-2" transform="translate(599.5,172) translate(-442.31,-127.266)"/>
    <g id="▽-legani" transform="translate(534.135,172) translate(-376.945,-127.266)">
        <g mask="url(#Mask-1)">
            <g id="l" transform="translate(13.008,380.547) translate(0,0) translate(0,0)">
                <g id="Path" opacity="1">
                    <path id="Path-1-14" fill="#006699" d="M13.012,-100.547C13.012,-100.547,13.012,100.543,13.012,100.543C13.012,100.543,-13.008,100.543,-13.008,100.543C-13.008,100.543,-13.008,-100.547,-13.008,-100.547C-13.008,-100.547,13.012,-100.547,13.012,-100.547Z" fill-opacity="1" fill-rule="nonzero"/>
                </g>
            </g>
        </g>
    </g>
    <g id="▽-legani-2" transform="translate(534.135,172) translate(-376.945,-127.266)">
        <g mask="url(#Mask-2)">
            <g id="e" opacity="0" transform="translate(128.18,407.266) translate(0,0) translate(0,0)">
                <g id="Combined-Shape" opacity="1">
                    <path id="Path-1-15" fill="#006699" d="M2.459,-73.828C44.459,-73.828,65.459,-53.068,65.459,-11.528C65.459,-5.628,65.039,0.702,64.199,7.452C64.199,7.452,-39.441,7.452,-39.441,7.452C-39.441,37.642,-21.821,52.732,13.429,52.732C30.209,52.732,45.119,50.862,58.149,47.112C58.149,47.112,58.149,68.202,58.149,68.202C45.119,71.952,29.269,73.832,10.619,73.832C-40.101,73.832,-65.461,48.652,-65.461,-1.688C-65.461,-49.778,-42.821,-73.828,2.459,-73.828ZM-39.446,-14.206C-39.446,-14.206,40.434,-14.206,40.434,-14.206C39.864,-40.076,27.214,-53.016,2.464,-53.016C-23.786,-53.016,-37.756,-40.076,-39.446,-14.206Z" fill-opacity="1" fill-rule="nonzero"/>
                </g>
            </g>
        </g>
    </g>
    <g id="▽-legani-3" transform="translate(534.135,172) translate(-376.945,-127.266)">
        <g mask="url(#Mask-3)">
            <g id="g" opacity="0" transform="translate(287.508,433.985) translate(0,0) translate(0,0)">
                <g id="Combined-Shape-2" opacity="1">
                    <path id="Path-1-16" fill="#006699" d="M65.887,47.113C65.887,82.733,43.237,100.543,-2.043,100.543C-20.223,100.543,-36.353,98.203,-50.413,93.513C-50.413,93.513,-50.413,72.423,-50.413,72.423C-36.073,77.113,-19.853,79.453,-1.763,79.453C25.987,79.453,39.867,68.673,39.867,47.113C39.867,47.113,39.867,40.083,39.867,40.083C28.807,44.763,16.897,47.113,4.147,47.113C-42.543,47.113,-65.883,22.213,-65.883,-27.567C-65.883,-76.217,-41.273,-100.547,7.947,-100.547C27.917,-100.547,47.227,-98.537,65.887,-94.497C65.887,-94.497,65.887,47.113,65.887,47.113ZM39.871,-75.511C30.961,-77.761,19.941,-78.891,6.821,-78.891C-24.589,-78.891,-40.289,-61.871,-40.289,-27.841C-40.289,7.129,-25.429,24.609,4.291,24.609C17.791,24.609,29.651,22.079,39.871,17.019C39.871,17.019,39.871,-75.511,39.871,-75.511Z" fill-opacity="1" fill-rule="nonzero"/>
                </g>
            </g>
        </g>
    </g>
    <g id="▽-legani-4" transform="translate(534.135,172) translate(-376.945,-127.266)">
        <g mask="url(#Mask-4)">
            <g id="a" opacity="0" transform="translate(450.914,407.266) translate(0,0) translate(0,0)">
                <g id="Combined-Shape-3" opacity="1">
                    <path id="Path-1-17" fill="#006699" d="M36.585,52.828C36.585,52.828,59.585,52.828,59.585,52.828C59.585,52.828,59.585,73.828,59.585,73.828C59.585,73.828,36.585,73.828,36.585,73.828C36.585,73.828,36.585,52.828,36.585,52.828Z" fill-opacity="1" fill-rule="nonzero"/>
                    <g id="Combined-Shape-4" opacity="1">
                        <path id="Path-1-18" fill="#006699" d="M-62.227,29.252C-62.227,-1.028,-42.256,-16.168,-2.316,-16.168C10.524,-16.168,23.364,-15.238,36.214,-13.358C36.214,-13.358,36.214,-27.278,36.214,-27.278C36.214,-44.248,22.943,-52.738,-3.587,-52.738C-18.777,-52.738,-34.337,-50.388,-50.277,-45.698C-50.277,-45.698,-50.277,-66.798,-50.277,-66.798C-34.337,-71.488,-18.777,-73.828,-3.587,-73.828C40.293,-73.828,62.223,-58.548,62.223,-27.988C62.223,-27.988,62.223,73.832,62.223,73.832C62.223,73.832,47.604,73.832,47.604,73.832C47.604,73.832,38.604,59.202,38.604,59.202C23.884,68.952,7.853,73.832,-9.497,73.832C-44.647,73.832,-62.227,58.972,-62.227,29.252ZM-2.322,4.922C-24.912,4.922,-36.212,12.892,-36.212,28.832C-36.212,44.762,-27.302,52.732,-9.492,52.732C8.508,52.732,23.738,47.952,36.208,38.392C36.208,38.392,36.208,7.732,36.208,7.732C23.368,5.862,10.528,4.922,-2.322,4.922Z" fill-opacity="1" fill-rule="nonzero"/>
                    </g>
                </g>
            </g>
        </g>
    </g>
    <g id="▽-legani-5" transform="translate(534.135,172) translate(-376.945,-127.266)">
        <g mask="url(#Mask-5)">
            <g id="n" opacity="0" transform="translate(619.102,407.094) translate(0,0) translate(0,0)">
                <g id="Combined-Shape-5" opacity="1">
                    <path id="Path-1-19" fill="#006699" d="M-63.633,74.004C-63.633,74.004,-63.633,-73.656,-63.633,-73.656C-63.633,-73.656,-46.053,-73.656,-46.053,-73.656C-46.053,-73.656,-41.413,-54.816,-41.413,-54.816C-26.323,-67.376,-9.723,-73.656,8.367,-73.656C45.207,-73.656,63.637,-55.326,63.637,-18.676C63.637,-18.676,63.637,74.004,63.637,74.004C63.637,74.004,37.617,74.004,37.617,74.004C37.617,74.004,37.617,-19.096,37.617,-19.096C37.617,-41.026,26.698,-51.996,4.848,-51.996C-10.052,-51.996,-24.212,-45.766,-37.622,-33.296C-37.622,-33.296,-37.622,74.004,-37.622,74.004C-37.622,74.004,-63.633,74.004,-63.633,74.004ZM-63.602,-74C-63.602,-74,-38.602,-74,-38.602,-74C-38.602,-74,-38.602,-53,-38.602,-53C-38.602,-53,-63.602,-53,-63.602,-53C-63.602,-53,-63.602,-74,-63.602,-74Z" fill-opacity="1" fill-rule="nonzero"/>
                </g>
            </g>
        </g>
    </g>
    <g id="▽-legani-6" transform="translate(534.135,172) translate(-376.945,-127.266)">
        <g mask="url(#Mask-6)">
            <g id="i" opacity="0" transform="translate(740.883,407.266) translate(0,0) translate(0,0)">
                <g id="Path-2" opacity="1">
                    <path id="Path-1-20" fill="#006699" d="M13.012,-73.828C13.012,-73.828,13.012,73.832,13.012,73.832C13.012,73.832,-13.008,73.832,-13.008,73.832C-13.008,73.832,-13.008,-73.828,-13.008,-73.828C-13.008,-73.828,13.012,-73.828,13.012,-73.828Z" fill-opacity="1" fill-rule="nonzero"/>
                </g>
            </g>
        </g>
    </g>
    <g id="▽-legani-7" transform="translate(534.135,172) translate(-376.945,-127.266)">
        <g mask="url(#Mask-7)">
            <g id="titik" opacity="0" transform="translate(727.875,333.438) translate(0,0) rotate(90) translate(-13.305,-13.352)">
                <g id="Path-3" opacity="1">
                    <path id="Path-1-21" fill="#006699" d="M13.012,-13.008C13.012,-13.008,13.012,13.012,13.012,13.012C13.012,13.012,-13.008,13.012,-13.008,13.012C-13.008,13.012,-13.008,-13.008,-13.008,-13.008C-13.008,-13.008,13.012,-13.008,13.012,-13.008Z" fill-opacity="1" fill-rule="nonzero"/>
                </g>
            </g>
        </g>
    </g>
    <g id="▽-legani-8" transform="translate(534.135,172) translate(-376.945,-127.266)"/>
    <script><![CDATA[/*
 KeyshapeJS v1.1.1 (c) 2018-2021 Pixofield Ltd | pixofield.com/keyshapejs/mit-license */
window.KeyshapeJS=function(){function t(a){return"undefined"!==typeof a}function x(a,b){return a&&0==a.indexOf(b)}function R(a){var b={},c;for(c in a)b[c]=a[c];return b}function H(a){if(!isFinite(a))throw Error("Non-finite value");}function S(a){if(14>=a)return 16;var b=T[a];b||(b=t(da[a])?0|(a.toLowerCase().indexOf("color")==a.length-5?48:0):1);return b}function K(a){return 0<=a?Math.pow(a,1/3):-Math.pow(-a,1/3)}function ea(a,b,c,d){if(0==a)return 0==b?b=-d/c:(a=Math.sqrt(c*c-4*b*d),d=(-c+a)/(2*
b),0<=d&&1>=d?b=d:(d=(-c-a)/(2*b),b=0<=d&&1>=d?d:0)),b;var e=c/a-b*b/(a*a)/3;c=b*b*b/(a*a*a)/13.5-b*c/(a*a)/3+d/a;var n=c*c/4+e*e*e/27;b=-b/(3*a);if(0>=n){if(0==e&&0==c)return-K(d/a);a=Math.sqrt(c*c/4-n);d=Math.acos(-c/2/a);c=Math.cos(d/3);d=Math.sqrt(3)*Math.sin(d/3);a=K(a);e=2*a*c+b;if(0<=e&&1>=e)return e;e=-a*(c+d)+b;if(0<=e&&1>=e)return e;e=a*(d-c)+b;if(0<=e&&1>=e)return e}else{a=K(-c/2+Math.sqrt(n));c=K(-c/2-Math.sqrt(n));d=a+c+b;if(0<=d&&1>=d)return d;d=-(a+c)/2+b;if(0<=d&&1>=d)return d}return 0}
function fa(a,b){if(48==a&&"number"===typeof b)return"rgba("+(b>>>24)+","+(b>>>16&255)+","+(b>>>8&255)+","+(b&255)/255+")";if(64==a)return b=b.map(function(a){return a+"px"}),b.join(",");if(96==a){a="";for(var c=b.length,d=0;d<c;d+=2)a+=b[d],a+=b[d+1].join(",");return a}if(80==a){if(0==b[0])return"none";a="";c=b.length;for(d=0;d<c;)a+=U[b[d]],1==b[d]?a+="("+b[d+1]+") ":5==b[d]?(a+="("+b[d+1]+"px "+b[d+2]+"px "+b[d+3]+"px rgba("+(b[d+4]>>>24)+","+(b[d+4]>>16&255)+","+(b[d+4]>>8&255)+","+(b[d+4]&255)/
255+")) ",d+=3):a=2==b[d]?a+("("+b[d+1]+"px) "):7==b[d]?a+("("+b[d+1]+"deg) "):a+("("+(0>b[d+1]?0:b[d+1])+") "),d+=2;return a}return 32==a?b+"px":b}function y(a){return 0>=a?0:255<=a?255:a}function ha(a,b,c,d){if(16==a||32==a)return(c-b)*d+b;if(0==a)return.5>d?b:c;if(48==a){if("number"===typeof b&&"number"===typeof c){var e=1-d;return(y(e*(b>>>24)+d*(c>>>24))<<24|y(e*(b>>>16&255)+d*(c>>>16&255))<<16|y(e*(b>>>8&255)+d*(c>>>8&255))<<8|y(e*(b&255)+d*(c&255)))>>>0}return.5>d?b:c}if(64==a){0==b.length&&
(b=[0]);0==c.length&&(c=[0]);var n=b.length;b.length!=c.length&&(n=b.length*c.length);var q=[];for(a=0;a<n;++a){var h=b[a%b.length];var g=(c[a%c.length]-h)*d+h;0>g&&(g=0);q.push(g)}return q}if(96==a){if(b.length!=c.length)return.5>d?b:c;n=b.length;q=[];for(a=0;a<n;a+=2){if(b[a]!==c[a])return.5>d?b:c;q[a]=b[a];q[a+1]=[];for(h=0;h<b[a+1].length;++h)q[a+1].push((c[a+1][h]-b[a+1][h])*d+b[a+1][h])}return q}if(80==a){n=b.length;if(n!=c.length)return.5>d?b:c;q=[];for(a=0;a<n;){if(b[a]!=c[a]||1==b[a])return.5>
d?b:c;q[a]=b[a];q[a+1]=(c[a+1]-b[a+1])*d+b[a+1];if(5==b[a]){q[a+2]=(c[a+2]-b[a+2])*d+b[a+2];q[a+3]=(c[a+3]-b[a+3])*d+b[a+3];e=1-d;var f=b[a+4],l=c[a+4];g=e*(f>>>24)+d*(l>>>24);var m=e*(f>>16&255)+d*(l>>16&255);h=e*(f>>8&255)+d*(l>>8&255);e=e*(f&255)+d*(l&255);q[a+4]=(y(m)<<16|y(h)<<8|y(e))+16777216*(y(g)|0);a+=3}a+=2}return q}return 0}function V(a,b){a:{var c=a+b[2];var d=b[4].length;for(var e=0;e<d;++e)if(c<b[4][e]){c=e;break a}c=d-1}d=b[2];e=b[4][c-1]-d;a=(a-e)/(b[4][c]-d-e);if(b[6]&&b[6].length>
c-1)if(d=b[6][c-1],1==d[0])if(0>=a)a=0;else if(1<=a)a=1;else{e=d[1];var n=d[3];a=ea(3*e-3*n+1,-6*e+3*n,3*e,-a);a=3*a*(1-a)*(1-a)*d[2]+3*a*a*(1-a)*d[4]+a*a*a}else 2==d[0]?(d=d[1],a=Math.ceil(a*d)/d):3==d[0]&&(d=d[1],a=Math.floor(a*d)/d);return ha(b[1]&240,b[5][c-1],b[5][c],a)}function L(){u||(v=(new Date).getTime()+W)}function O(a){if(a||!E){for(var b=!1,c=0;c<w.length;++c)w[c].J(a)&&(b=!0);if(a)for(;0<I.length;)if(a=I.shift(),c=a[0],1==a[1])c.onfinish&&(c.onfinish(),b=!0),c.I();else if(2==a[1]&&c.onloop)c.onloop();
return b}}function X(){L();O(!0)&&!u?(E=!0,M(X)):E=!1}function N(){E||(E=!0,M(X))}function Y(a,b){var c=[];a.split(b).forEach(function(a){c.push(parseFloat(a))});return c}function A(a){-1==a.indexOf(",")&&(a=a.replace(" ",","));return Y(a,",")}function Z(a){a._ks||(a._ks={});if(!a._ks.transform){for(var b=a._ks.transform=[],c=0;14>=c;++c)b[c]=0;b[10]=1;b[11]=1;if(a=a.getAttribute("transform")){a=a.trim().split(") ");for(c=a.length-2;0<=c;--c)if(x(a[c],"translate(")){for(var d=0;d<c;d++)a.shift();
break}c=a.shift();x(c,"translate(")&&(c=A(c.substring(10)),b[1]=c[0],b[2]=t(c[1])?c[1]:0,c=a.shift());x(c,"rotate(")&&(c=A(c.substring(7)),b[6]=c[0],c=a.shift());x(c,"skewX(")&&(c=A(c.substring(6)),b[7]=c[0],c=a.shift());x(c,"skewY(")&&(c=A(c.substring(6)),b[8]=c[0],c=a.shift());x(c,"scale(")&&(c=A(c.substring(6)),b[10]=c[0],b[11]=t(c[1])?c[1]:c[0],c=a.shift());x(c,"translate(")&&(c=A(c.substring(10)),b[13]=c[0],b[14]=t(c[1])?c[1]:0)}}}function aa(a){this.h=a;this.A=[];this.C=[];this.v=0;this.s=this.a=
this.c=null;this.i=this.f=this.g=0;this.b=1;this.j=this.F=this.o=!1}function J(a,b,c){b=a[b];void 0===b&&(b=a[c]);return b}function ia(a){return Array.isArray(a)?a:x(a,"cubic-bezier(")?(a=a.substring(13,a.length-1).split(","),[1,parseFloat(a[0]),parseFloat(a[1]),parseFloat(a[2]),parseFloat(a[3])]):x(a,"steps(")?(a=a.substring(6,a.length-1).split(","),[a[1]&&"start"==a[1].trim()?2:3,parseFloat(a[0])]):[0]}function ja(a){a=a.trim();return x(a,"#")?(parseInt(a.substring(1),16)<<8)+255:x(a,"rgba(")?(a=
a.substring(5,a.length-1),a=a.split(","),(parseInt(a[0],10)<<24)+(parseInt(a[1],10)<<16)+(parseInt(a[2],10)<<8)+255*parseFloat(a[3])<<0):a}function ba(a){!1===a.j&&(w.push(a),a.j=!0,!1!==a.h.autoplay&&a.play());return this}function P(a){if(!0===a.j){a._cancel();var b=w.indexOf(a);-1<b&&w.splice(b,1);b=I.indexOf(a);-1<b&&I.splice(b,1);a.j=!1}return this}var Q=Error("Not in timeline list"),ca="mpath posX posY    rotate skewX skewY  scaleX scaleY  anchorX anchorY".split(" "),ka=" translate translate    rotate skewX skewY  scale scale  translate translate".split(" "),
U="none url blur brightness contrast drop-shadow grayscale hue-rotate invert opacity saturate sepia".split(" "),M=window.requestAnimationFrame||window.webkitRequestAnimationFrame||window.mozRequestAnimationFrame||window.oRequestAnimationFrame||window.msRequestAnimationFrame||null;M||(M=function(a){window.setTimeout(a,16)});var la=navigator.vendor.match(/apple/i),T={d:97,fill:48,fillOpacity:16,filter:80,height:33,opacity:16,offsetDistance:33,stroke:48,strokeDasharray:64,strokeDashoffset:32,strokeOpacity:16,
strokeWidth:32,transform:1,width:33},da=window.getComputedStyle(document.documentElement),E=!1,v=(new Date).getTime(),u,W=0,w=[],I=[];aa.prototype={B:function(a){var b=0;if(null!==this.c){var c=this.l();0<this.b&&null!==c&&c>=this.f?this.i?(this.c=v-this.g/this.b,this.i--,b=2):(b=1,a?this.a=c:this.a=this.s?Math.max(this.s,this.f):this.f):0>this.b&&null!==c&&c<=this.g?this.i&&Infinity!=this.f?(this.c=v-this.f/this.b,this.i--,b=2):(this.i=0,b=1,a?this.a=c:this.a=this.s?Math.min(this.s,this.g):this.g):
null!==c&&0!=this.b&&(a&&null!==this.a&&(this.c=v-this.a/this.b),this.a=null)}this.s=this.l();return b},J:function(a){a&&(this.o&&(this.o=!1,null===this.c&&(0!=this.b&&null!==this.a?(this.c=v-this.a/this.b,this.a=null):this.c=v)),null===this.a&&null!==this.c&&(a=this.B(!1),0!=a&&I.push([this,a])));a=this.l();if(null===a)return!1;for(var b=this.A,c=this.C,d=0;d<b.length;++d){for(var e=b[d],n=!1,q=0;q<c[d].length;++q){var h=c[d][q],g=h[0];if(null!==g){var f=h[2];var l=h[4].length,m=h[4][l-1]-f;f=0==
m?h[5][l-1]:a<=f?h[5][0]:a>=f+h[3]?0==h[3]%m?h[5][l-1]:V(h[3]%m,h):V((a-f)%m,h);0==g?(e._ks.mpath=h[8],e._ks.transform[g]=f,n=!0):14>=g?(e._ks.transform[g]=f,n=!0):(f=fa(h[1]&240,f),h[1]&1?e.setAttribute(g,f):e.style[g]=f)}}if(n){n=e;Z(n);q=n._ks.transform;h="";if(g=n._ks.mpath)l=q[0],0>l&&(l=0),100<l&&(l=100),l=l*g[2]/100,f=g[1].getPointAtLength(l),h="translate("+f.x+","+f.y+") ",g[0]&&(.5>l?(l=f,f=g[1].getPointAtLength(.5)):l=g[1].getPointAtLength(l-.5),h+="rotate("+180*Math.atan2(f.y-l.y,f.x-l.x)/
Math.PI+") ");for(g=1;g<q.length;++g)f=q[g],f!=(10==g||11==g?1:0)&&(h+=" "+ka[g]+"(",h=2>=g?h+(1==g?f+",0":"0,"+f):13<=g?h+(13==g?f+",0":"0,"+f):10<=g?h+(10==g?f+",1":"1,"+f):h+f,h+=")");n.setAttribute("transform",h)}la&&e.setAttribute("opacity",e.getAttribute("opacity"))}return"running"==this.m()},I:function(){!1!==this.h.autoremove&&"finished"==this.m()&&P(this)},D:function(){if(!this.F){this.F=!0;for(var a=this.A,b=this.C,c=0;c<a.length;++c)for(var d=a[c],e=0;e<b[c].length;++e)14>=b[c][e][0]&&
Z(d)}},u:function(a){if("number"==typeof a)return a;if(!t(this.h.markers)||!t(this.h.markers[a]))throw Error("Invalid marker: "+a);return+this.h.markers[a]},play:function(a){t(a)&&null!==a&&(a=this.u(a),H(a),0>this.b&&a<this.g&&(a=this.g),0<this.b&&a>this.f&&(a=this.f),this.w(a,!0));if(!this.j)throw Q;a=this.l();if(0<this.b&&(null===a||a>=this.f))this.a=this.g;else if(0>this.b&&(null===a||a<=this.g)){if(Infinity==this.f)throw Error("Cannot seek to Infinity");this.a=this.f}else 0==this.b&&null===a&&
(this.a=this.g);if(null===this.a)return this;this.c=null;this.o=!0;this.D();N();return this},pause:function(a){if(!this.j)throw Q;t(a)&&(a=this.u(a),H(a));if("paused"!=this.m()){L();var b=this.l();if(null===b)if(0<=this.b)this.a=this.g;else{if(Infinity==this.f)throw Error("Cannot seek to Infinity");this.a=this.f}null!==this.c&&null===this.a&&(this.a=b);this.c=null;this.o=!1;this.B(!1);this.D();N()}t(a)&&this.w(a,!0);return this},range:function(a,b){if(0==arguments.length)return{"in":this.g,out:this.f};
var c=this.u(a),d=this.v;t(b)&&(d=this.u(b));H(c);if(0>c||0>d||c>=d||isNaN(d))throw Error("Invalid range");var e=this.m();this.g=c;this.f=d;"finished"==e&&"running"==this.m()&&this.play();return this},loop:function(a){if(!t(a))return{count:this.i};this.i=!0===a?Infinity:Math.floor(a);if(0>this.i||isNaN(this.i))this.i=0;return this},l:function(){return null!==this.a?this.a:null===this.c?null:(v-this.c)*this.b},w:function(a,b){b&&L();null!==a&&(this.D(),null!==this.a||null===this.c||0==this.b?(this.a=
a,O(!1)):this.c=v-a/this.b,this.j||(this.c=null),this.s=null,this.B(!0),N())},G:function(){return this.l()},time:function(a){if(t(a)){if(!this.j)throw Q;a=this.u(a);H(a);this.w(a,!0);return this}return this.G()},m:function(){var a=this.l();return this.o?"running":null===a?"idle":null===this.c?"paused":0<this.b&&a>=this.f||0>this.b&&a<=this.g?"finished":"running"},state:function(){return this.m()},duration:function(){return this.v},H:function(a){H(a);L();var b=this.l();this.b=a;null!==b&&this.w(b,
!1)},rate:function(a){return t(a)?(this.H(a),this):this.b},markers:function(a){return t(a)?(this.h.markers=R(a),this):t(this.h.markers)?this.h.markers:{}},marker:function(a){return t(this.h.markers)?this.h.markers[a]:void 0},_cancel:function(){if(!this.j||"idle"==this.m())return this;this.c=this.a=null;this.o=!1;return this}};return{version:"1.1.1",animate:function(){var a={};1==arguments.length%2&&(a=R(arguments[arguments.length-1]));a=new aa(a);for(var b=arguments,c=0,d=0;d<b.length-1;d+=2){var e=
b[d];var n=e instanceof Element?e:document.getElementById(e.substring(1));if(!n)throw Error("Invalid target: "+e);e=n;n=b[d+1];e._ks||(e._ks={});for(var q=[],h=0;h<n.length;++h){var g=n[h],f=J(g,"p","property");if("string"!=typeof f||-1!=f.indexOf("-")||""===f||!(0<T[f]||0<=ca.indexOf(f)))throw Error("Invalid property: "+f);var l=ca.indexOf(f);""!==f&&0<=l&&(f=l);l=S(f);var m=J(g,"t","times");if(!m||2>m.length)throw Error("Not enough times");m=m.slice();if(!isFinite(m[0])||0>m[0])throw Error("Invalid time: "+
m[0]);for(var B=1;B<m.length;++B)if(!isFinite(m[B])||0>m[B]||m[B]<m[B-1])throw Error("Invalid time: "+m[B]);B=m[0];var v=m[m.length-1]-B,y=g.iterations||0;1>y&&(y=1);v*=y;c<v+B&&(c=v+B);var u=J(g,"v","values");if(!u||u.length!=m.length)throw Error("Values do not match times");u=u.slice();for(var C=f,k=u,w=S(C)&240,p=0;p<k.length;++p)if(96==w){for(var G=k[p].substring(6,k[p].length-2).match(/[A-DF-Za-df-z][-+0-9eE., ]*/ig),A=[],r=0;r<G.length;++r){A.push(G[r][0]);for(var z=1<G[r].trim().length?G[r].substring(1).split(","):
[],F=0;F<z.length;++F)z[F]=parseFloat(z[F]);A.push(z)}k[p]=A}else if(48==w)x(k[p],"#")?(G=9==k[p].length,k[p]=parseInt(k[p].substring(1),16),G||(k[p]=256*k[p]|255)):x(k[p],"url(")||"none"==k[p]||(console.warn("unsupported color: "+k[p]),k[p]=0);else if(80==w){G=k;A=p;r=k[p];if("none"==r)r=[0];else{z=[];for(var D=r.indexOf("(");0<D;)if(F=U.indexOf(r.substring(0,D)),0<=F){z.push(F);var E=r.indexOf(") ");0>E&&(E=r.length-1);D=r.substring(D+1,E).split(" ");5==F?(z.push(parseFloat(D[0])),z.push(parseFloat(D[1])),
z.push(parseFloat(D[2])),z.push(ja(D[3]))):1==F?z.push(D[0]):z.push(parseFloat(D[0]));r=r.substring(E+1).trim();D=r.indexOf("(")}else break;r=z}G[A]=r}else 64==w?"none"!=k[p]?/^[0-9 .]*$/.test(k[p])?k[p]=Y(k[p]," "):(console.warn("unsupported value: "+k[p]),k[p]=[0]):k[p]=[0]:32==w?(H(k[p]),k[p]=parseFloat(k[p])):0===C&&(k[p]=parseFloat(k[p]));C=J(g,"e","easing");k=m.length;for(C||(C=[]);C.length<k;)C.push([1,0,0,.58,1]);for(k=0;k<C.length;++k)C[k]=ia(C[k]);l=[f,l,B,v,m,u,C,y];m=J(g,"mp","motionPath");
t(m)&&0===f&&(l[8]=[],l[8][0]=g.motionRotate,g=document.createElementNS("http://www.w3.org/2000/svg","path"),m||(m="M0,0"),g.setAttribute("d",m),l[8][1]=g,l[8][2]=g.getTotalLength());q.push(l)}0<q.length&&(a.A.push(e),a.C.push(q))}a.v=c;a.g=0;a.f=a.v;ba(a);return a},add:ba,remove:P,removeAll:function(){for(var a=w.length-1;0<=a;--a)P(w[a]);return this},timelines:function(){return w.slice()},globalPlay:function(){u&&(W=u-(new Date).getTime(),u=void 0,N());return this},globalPause:function(){u||(u=
v,O(!1));return this},globalState:function(){return u?"paused":"running"}}}();
]]></script>
    <script><![CDATA[if(KeyshapeJS.version.indexOf('1.')!=0)throw Error('Expected KeyshapeJS v1.*.*');window.ks=document.ks=KeyshapeJS;(function(ks){
ks.animate("#X",[{p:'opacity',t:[0,2250,12250],v:[0,1,0],e:[[3,1],[3,1],[0]]}],
"#Oval-4",[{p:'scaleX',t:[2250,3250],v:[0,1],e:[[1,0.333,0,0,1],[0]]},{p:'scaleY',t:[2250,3250],v:[0,1],e:[[1,0.333,0,0,1],[0]]}],
"#Oval-3",[{p:'scaleX',t:[2500,3500],v:[0,1],e:[[1,0.333,0,0,1],[0]]},{p:'scaleY',t:[2500,3500],v:[0,1],e:[[1,0.333,0,0,1],[0]]},{p:'opacity',t:[0,2500,12500],v:[0,1,0],e:[[3,1],[3,1],[0]]}],
"#Oval-7",[{p:'scaleX',t:[2500,3500],v:[0,1],e:[[1,0.333,0,0,1],[0]]},{p:'scaleY',t:[2500,3500],v:[0,1],e:[[1,0.333,0,0,1],[0]]},{p:'opacity',t:[0,2500,12500],v:[0,1,0],e:[[3,1],[3,1],[0]]}],
"#Oval-8",[{p:'scaleX',t:[2500,3500],v:[0,1],e:[[1,0.333,0,0,1],[0]]},{p:'scaleY',t:[2500,3500],v:[0,1],e:[[1,0.333,0,0,1],[0]]},{p:'opacity',t:[0,2500,12500],v:[0,1,0],e:[[3,1],[3,1],[0]]}],
"#Oval-11",[{p:'scaleX',t:[2500,3500],v:[0,1],e:[[1,0.333,0,0,1],[0]]},{p:'scaleY',t:[2500,3500],v:[0,1],e:[[1,0.333,0,0,1],[0]]},{p:'opacity',t:[0,2500,12500],v:[0,1,0],e:[[3,1],[3,1],[0]]}],
"#Oval-2",[{p:'scaleX',t:[2750,3750],v:[0,1],e:[[1,0.333,0,0,1],[0]]},{p:'scaleY',t:[2750,3750],v:[0,1],e:[[1,0.333,0,0,1],[0]]},{p:'opacity',t:[0,2750,12750],v:[0,1,0],e:[[3,1],[3,1],[0]]}],
"#Oval-6",[{p:'scaleX',t:[2750,3750],v:[0,1],e:[[1,0.333,0,0,1],[0]]},{p:'scaleY',t:[2750,3750],v:[0,1],e:[[1,0.333,0,0,1],[0]]},{p:'opacity',t:[0,2750,12750],v:[0,1,0],e:[[3,1],[3,1],[0]]}],
"#Oval-9",[{p:'scaleX',t:[2750,3750],v:[0,1],e:[[1,0.333,0,0,1],[0]]},{p:'scaleY',t:[2750,3750],v:[0,1],e:[[1,0.333,0,0,1],[0]]},{p:'opacity',t:[0,2750,12750],v:[0,1,0],e:[[3,1],[3,1],[0]]}],
"#Oval-12",[{p:'scaleX',t:[2750,3750],v:[0,1],e:[[1,0.333,0,0,1],[0]]},{p:'scaleY',t:[2750,3750],v:[0,1],e:[[1,0.333,0,0,1],[0]]},{p:'opacity',t:[0,2750,12750],v:[0,1,0],e:[[3,1],[3,1],[0]]}],
"#Oval-22",[{p:'scaleX',t:[3000,4000],v:[0,1],e:[[1,0.333,0,0,1],[0]]},{p:'scaleY',t:[3000,4000],v:[0,1],e:[[1,0.333,0,0,1],[0]]},{p:'opacity',t:[0,3000,13000],v:[0,1,0],e:[[3,1],[3,1],[0]]}],
"#Oval-5",[{p:'scaleX',t:[3000,4000],v:[0,1],e:[[1,0.333,0,0,1],[0]]},{p:'scaleY',t:[3000,4000],v:[0,1],e:[[1,0.333,0,0,1],[0]]},{p:'opacity',t:[0,3000,13000],v:[0,1,0],e:[[3,1],[3,1],[0]]}],
"#Oval-10",[{p:'scaleX',t:[3000,4000],v:[0,1],e:[[1,0.333,0,0,1],[0]]},{p:'scaleY',t:[3000,4000],v:[0,1],e:[[1,0.333,0,0,1],[0]]},{p:'opacity',t:[0,3000,13000],v:[0,1,0],e:[[3,1],[3,1],[0]]}],
"#Oval-13",[{p:'scaleX',t:[3000,4000],v:[0,1],e:[[1,0.333,0,0,1],[0]]},{p:'scaleY',t:[3000,4000],v:[0,1],e:[[1,0.333,0,0,1],[0]]},{p:'opacity',t:[0,3000,13000],v:[0,1,0],e:[[3,1],[3,1],[0]]}],
"#l",[{p:'mpath',t:[0,1000],v:['0%','100%'],e:[[1,0.333,0,0,1],[0]],mp:"M13.008,380.547C13.008,333.88,13.008,147.214,13.008,100.547"}],
"#e",[{p:'mpath',t:[250,1250],v:['0%','100%'],e:[[1,0.333,0,0,1],[0]],mp:"M128.18,407.266L128.18,127.266"},{p:'opacity',t:[0,250,10250],v:[0,1,0],e:[[3,1],[3,1],[0]]}],
"#Shape-Layer-3",[{p:'opacity',t:[0,250,10250],v:[0,1,0],e:[[3,1],[3,1],[0]]}],
"#g",[{p:'mpath',t:[500,1500],v:['0%','100%'],e:[[1,0.333,0,0,1],[0]],mp:"M287.508,433.985L287.508,153.985"},{p:'opacity',t:[0,500,10500],v:[0,1,0],e:[[3,1],[3,1],[0]]}],
"#Shape-Layer-4",[{p:'opacity',t:[0,500,10500],v:[0,1,0],e:[[3,1],[3,1],[0]]}],
"#a",[{p:'mpath',t:[750,1750],v:['0%','100%'],e:[[1,0.333,0,0,1],[0]],mp:"M450.914,407.266L450.914,127.266"},{p:'opacity',t:[0,750,10750],v:[0,1,0],e:[[3,1],[3,1],[0]]}],
"#Shape-Layer-5",[{p:'opacity',t:[0,750,10750],v:[0,1,0],e:[[3,1],[3,1],[0]]}],
"#n",[{p:'mpath',t:[1000,2000],v:['0%','100%'],e:[[1,0.333,0,0,1],[0]],mp:"M619.102,407.094L619.102,127.094"},{p:'opacity',t:[0,1000,11000],v:[0,1,0],e:[[3,1],[3,1],[0]]}],
"#Shape-Layer-6",[{p:'opacity',t:[0,1000,11000],v:[0,1,0],e:[[3,1],[3,1],[0]]}],
"#i",[{p:'mpath',t:[1250,2250],v:['0%','100%'],e:[[1,0.333,0,0,1],[0]],mp:"M740.883,407.266L740.883,127.266"},{p:'opacity',t:[0,1250,11250],v:[0,1,0],e:[[3,1],[3,1],[0]]}],
"#Shape-Layer-7",[{p:'opacity',t:[0,1250,11250],v:[0,1,0],e:[[3,1],[3,1],[0]]}],
"#titik",[{p:'mpath',t:[1250,2250,4250],v:['0%','100%','100%'],e:[[1,0.333,0,0,1],[0],[0]],mp:"M727.875,333.438L727.875,53.438C727.875,53.438,727.875,53.438,727.875,53.438"},{p:'rotate',t:[3250,4250],v:[90,0],e:[[1,0.333,0,0,1],[0]]},{p:'opacity',t:[0,1250,11250],v:[0,1,0],e:[[3,1],[3,1],[0]]}],
"#Shape-Layer-8",[{p:'opacity',t:[0,1250,11250],v:[0,1,0],e:[[3,1],[3,1],[0]]}],
{autoremove:false}).range(0,6042);
if(document.location.search.substr(1).split('&').indexOf('global=paused')>=0)ks.globalPause()})(KeyshapeJS);
]]></script>
</svg>
